<svg version="1.1" id="Layer_1" xmlns="http://www.w3.org/2000/svg" xmlns:xlink="http://www.w3.org/1999/xlink" 
	 width="900" height="900" viewBox="0 0 900 900" xml:space="preserve">
<g transform="translate(-60, -50)">
<path fill="none" opacity="1.000000" stroke="none" 
	d="
M1.000000,366.000000 
	C1.000000,244.000015 1.000000,122.500031 1.000000,1.000033 
	C342.333282,1.000022 683.666565,1.000022 1025.000000,1.000011 
	C1025.000000,342.333252 1025.000000,683.666504 1025.000000,1024.999756 
	C683.666809,1024.999878 342.333618,1024.999878 1.000205,1025.000000 
	C1.000000,805.500000 1.000000,586.000000 1.000000,366.000000 
M215.972275,641.027649 
	C215.972275,641.027649 215.848984,641.035034 216.060486,641.548950 
	C216.363098,641.751343 216.665726,641.953735 216.972931,642.029358 
	C216.972931,642.029358 216.846130,642.033020 217.052902,642.555603 
	C217.351227,642.773132 217.649551,642.990723 218.188751,643.803040 
	C220.039856,645.558289 221.890961,647.313538 224.011154,649.585144 
	C224.318695,649.815430 224.626221,650.045715 225.197021,650.844604 
	C226.733063,652.247437 228.269089,653.650269 230.051041,655.555054 
	C230.358292,655.754883 230.665543,655.954651 230.971741,656.027649 
	C230.971741,656.027649 230.845200,656.036865 231.057648,656.554565 
	C231.358292,656.761719 231.658951,656.968811 231.968658,657.033569 
	C231.968658,657.033569 231.825989,657.033997 232.037903,657.565002 
	C232.338562,657.790283 232.639236,658.015625 233.191879,658.840149 
	C235.691895,661.254333 238.191910,663.668518 240.971848,666.614075 
	C241.288116,666.853394 241.604385,667.092773 242.165070,667.931824 
	C248.707809,674.306885 255.250534,680.681885 262.038239,687.566467 
	C262.341003,687.782288 262.643738,687.998169 263.199005,688.816101 
	C265.754242,691.222534 268.309479,693.628967 271.085785,696.531555 
	C271.380249,696.731567 271.674713,696.931519 272.161621,697.660828 
	C272.740204,698.115906 273.318817,698.570984 274.160492,699.561584 
	C274.497192,699.774475 274.833893,699.987366 275.394257,700.795898 
	C278.500946,703.811340 281.583191,706.852478 284.718018,709.838379 
	C328.904633,751.925415 375.378235,791.414490 422.487213,830.137085 
	C448.591461,851.594238 475.261749,872.405640 502.352234,892.602295 
	C516.359009,903.044678 515.476440,901.849854 527.556335,892.113525 
	C551.549011,872.775452 575.339966,853.175049 598.854858,833.258728 
	C637.879395,800.206177 676.847107,767.078552 715.372498,733.448425 
	C731.537354,719.337524 746.512329,703.863342 762.769226,688.987793 
	C764.179138,687.324219 765.589050,685.660706 767.270508,683.408142 
	C768.831360,681.933411 770.392151,680.458679 772.706726,678.979553 
	C775.803040,678.711792 777.069885,676.896973 777.237793,673.320068 
	C784.367432,666.169556 791.497070,659.019043 799.361694,651.880310 
	C803.948486,648.864197 808.571228,645.880310 809.996826,640.000488 
	C809.996826,640.000488 810.039368,640.014221 810.442627,639.765808 
	C810.693176,639.561829 810.879944,639.310486 811.287964,638.407104 
	C831.138977,615.384277 851.826172,593.017700 870.573608,569.128723 
	C885.279114,550.390259 897.585022,529.768616 911.416321,509.533325 
	C912.014648,508.404022 912.613037,507.274689 913.106201,506.091278 
	C913.106201,506.091278 913.156616,506.198181 913.713867,505.809845 
	C914.198669,504.558777 914.683472,503.307709 915.063660,502.047455 
	C915.063660,502.047455 915.070557,502.152313 915.572937,501.945923 
	C915.689880,501.635803 915.806824,501.325684 916.065002,500.628662 
	C916.065002,500.628662 916.078369,500.216949 916.703979,499.913940 
	C921.797119,489.942932 926.890259,479.971893 932.565613,469.923767 
	C932.667847,469.266113 932.770020,468.608490 932.913452,467.302246 
	C933.282654,466.534668 933.651855,465.767090 934.717773,464.861725 
	C935.347961,464.134857 936.328369,463.503662 936.556946,462.667114 
	C941.393188,444.965332 946.176941,427.248840 950.830017,409.498260 
	C951.099365,408.470764 950.172607,407.129791 949.726379,405.275482 
	C949.835571,404.849976 949.944824,404.424469 950.792236,403.801331 
	C951.376770,401.821930 952.191895,399.877899 952.502075,397.856384 
	C953.396606,392.027954 954.437622,386.187408 954.757996,380.315430 
	C955.067505,374.643524 954.436523,368.926758 954.430664,363.229462 
	C954.424805,357.491119 955.188171,351.707764 954.687561,346.025757 
	C954.106079,339.426208 952.475464,332.922302 951.376282,326.364105 
	C950.346619,320.221130 950.276123,313.764557 948.273804,307.967407 
	C943.191589,293.253357 937.305481,278.814941 931.600159,264.321686 
	C931.102722,263.058075 929.566040,262.203583 928.124939,260.717896 
	C927.671570,259.642395 927.218262,258.566864 926.870483,256.683411 
	C924.691162,251.305420 922.553772,245.909363 920.255615,240.582626 
	C920.065918,240.142914 918.786682,240.173248 917.903748,239.360809 
	C917.273682,238.902313 916.643616,238.443832 916.008423,237.187775 
	C916.351685,234.083740 915.177490,232.203552 911.531616,231.984436 
	C911.531616,231.984436 911.197510,231.930695 911.039307,231.392380 
	C910.601440,230.794418 910.163574,230.196457 909.680664,229.410843 
	C909.680664,229.410843 909.539368,229.279282 909.302734,228.873108 
	C909.095886,228.614258 909.006775,228.319778 909.444153,227.649963 
	C908.836487,227.098328 908.228821,226.546692 907.085144,225.557831 
	C906.087952,224.325195 905.090820,223.092560 904.048218,221.945770 
	C904.048218,221.945770 904.139893,221.913559 903.935730,221.299133 
	C902.974915,220.147476 902.014038,218.995819 900.974365,217.411591 
	C900.853699,217.108765 900.631775,216.935959 900.048584,216.292892 
	C899.057861,215.155716 898.067200,214.018539 897.049744,212.956345 
	C897.049744,212.956345 897.129272,212.953476 896.949524,212.433167 
	C896.664856,212.213959 896.380188,211.994736 896.096313,211.887222 
	C896.096313,211.887222 896.203552,211.856171 895.972351,211.265076 
	C894.979919,210.182571 893.987549,209.100067 892.753418,207.392380 
	C882.801147,197.688446 872.848877,187.984512 862.878479,177.524765 
	C861.547302,176.709183 860.216187,175.893600 858.967896,175.026810 
	C858.967896,175.026810 858.928528,175.115936 858.883667,174.384216 
	C857.564636,173.598129 856.245667,172.812042 854.477112,171.939178 
	C854.158142,171.827667 853.965576,171.606232 853.846863,170.538223 
	C852.860229,170.039001 851.873535,169.539780 850.446716,168.966660 
	C850.137268,168.855438 849.950073,168.638672 849.840393,167.569855 
	C848.842529,167.084000 847.844727,166.598160 846.940979,166.059875 
	C846.940979,166.059875 846.897766,166.158569 846.837158,165.439484 
	C845.852539,164.986038 844.867981,164.532593 843.964233,164.026443 
	C843.964233,164.026443 843.929199,164.116409 843.884644,163.386139 
	C841.856445,162.311920 839.828186,161.237701 837.907715,160.113480 
	C837.907715,160.113480 837.853088,160.218948 837.784668,159.432648 
	C836.669189,159.008453 835.553711,158.584274 833.974670,158.111359 
	C833.611267,157.851974 833.247803,157.592590 832.859253,156.606491 
	C832.076050,155.820602 831.422729,154.798584 830.489502,154.285370 
	C821.099182,149.121277 811.721619,143.979080 801.344238,140.877197 
	C794.863037,138.939926 788.720825,135.802826 782.192017,134.106506 
	C772.600830,131.614532 762.810730,129.873535 753.071289,127.988770 
	C752.132080,127.806999 750.952820,128.865768 749.232239,129.402573 
	C748.821350,129.262268 748.410400,129.121979 747.967590,128.212341 
	C747.070923,127.481171 746.198120,126.146660 745.274048,126.110176 
	C733.175354,125.632393 721.070312,125.275124 708.963806,125.088387 
	C707.652771,125.068153 706.322449,126.301910 704.232422,127.147621 
	C703.180115,127.159340 702.127869,127.171051 700.542847,126.585014 
	C698.029541,127.025269 695.516235,127.465530 692.254517,128.106918 
	C691.227478,128.215271 690.200439,128.323639 688.860046,127.750473 
	C687.906128,127.241852 686.843750,126.161980 686.016235,126.319092 
	C681.330444,127.208672 676.743958,128.654739 672.044312,129.431625 
	C656.857849,131.942078 642.645630,137.490067 628.505920,143.226562 
	C626.093201,144.205383 624.157104,146.358795 621.265137,148.582657 
	C620.372803,148.649063 619.480469,148.715469 618.757141,148.347397 
	C618.632751,148.500519 618.508362,148.653625 618.659180,149.508820 
	C613.716736,152.298767 608.774292,155.088730 603.922913,157.924179 
	C603.922913,157.924179 603.890686,157.827621 603.257996,157.970047 
	C602.176636,158.657715 601.095215,159.345383 599.332458,160.169525 
	C564.824036,180.255936 536.447754,207.210709 512.164246,240.003815 
	C491.261810,211.704987 467.829041,188.091919 439.866791,168.363281 
	C438.895416,167.918259 437.924042,167.473221 436.990173,166.993896 
	C436.990173,166.993896 436.976959,167.042725 436.903839,166.336044 
	C434.559265,163.202087 432.022400,160.420578 427.038391,161.138947 
	C426.664062,160.843170 426.289703,160.547409 425.856903,159.509705 
	C423.242981,156.690338 423.153595,150.140320 416.533600,153.197159 
	C416.340637,153.286255 415.944122,152.942719 415.645813,152.794312 
	C412.080261,151.020523 408.543976,149.185181 404.945618,147.480774 
	C385.063446,138.063461 364.381653,130.947800 342.812592,126.622726 
	C339.362030,125.930809 335.558868,126.997452 331.267059,127.349937 
	C330.844635,127.239853 330.422180,127.129768 329.802307,126.254807 
	C326.504517,126.246574 323.206757,126.238342 319.267303,126.375099 
	C318.845459,126.274208 318.423584,126.173317 317.806152,125.287140 
	C315.820679,124.857330 313.847961,124.351578 311.846832,124.014702 
	C308.453461,123.443436 304.989288,123.193184 301.662170,122.372787 
	C300.147095,121.999207 298.888123,120.587189 297.512970,119.646179 
	C297.509186,120.262589 297.505402,120.878998 297.501617,121.495399 
	C295.824982,122.336365 294.219696,123.653603 292.456665,123.917648 
	C288.950073,124.442833 285.287781,124.011612 281.812683,124.647324 
	C272.953583,126.267990 264.045044,127.830566 255.372131,130.204910 
	C243.645004,133.415390 232.101151,137.306015 220.532532,141.070374 
	C219.180695,141.510239 218.169998,142.998444 216.505295,144.423065 
	C215.679779,144.639420 214.854263,144.855774 213.643188,144.597763 
	C212.429413,145.357285 211.215652,146.116806 209.580215,147.003967 
	C209.580215,147.003967 209.142273,147.052094 208.339828,147.022858 
	C205.243469,148.711304 202.147110,150.399765 199.028809,152.012527 
	C199.028809,152.012527 199.099503,152.047333 198.673737,152.199219 
	C198.396317,152.338821 198.179214,152.542648 197.433670,153.078857 
	C196.671417,153.402786 195.909180,153.726730 194.696152,154.206268 
	C194.401138,154.351959 194.174377,154.568954 193.587570,154.996704 
	C193.587570,154.996704 193.140488,155.051544 192.336624,155.022827 
	C189.131454,155.644318 185.434402,155.574219 185.017853,160.525253 
	C185.017853,160.525253 184.954422,160.857986 184.440628,160.957932 
	C184.102295,161.037399 183.763977,161.116882 182.646042,161.107101 
	C179.465118,161.788223 176.320465,162.515213 175.635025,166.734177 
	C175.635025,166.734177 175.393265,166.780121 174.749237,166.439087 
	C174.221786,167.035568 173.694336,167.632034 173.086319,168.110596 
	C173.086319,168.110596 173.212265,168.177872 172.440063,168.086990 
	C169.931244,168.549133 167.257889,168.833679 167.585846,172.630066 
	C167.585846,172.630066 167.408203,172.691696 166.717133,172.368454 
	C165.832077,173.302338 164.947006,174.236221 163.741440,175.747726 
	C151.229172,188.190292 138.716888,200.632858 125.485451,213.100677 
	C120.804665,215.819443 118.092285,219.894531 117.096245,225.082626 
	C117.096245,225.082626 117.205025,225.141602 116.474632,225.176926 
	C116.018425,226.166855 115.562225,227.156784 115.054047,228.055832 
	C115.054047,228.055832 115.151024,228.095276 114.432716,228.160492 
	C113.982430,229.146835 113.532143,230.133194 113.030121,231.037659 
	C113.030121,231.037659 113.120529,231.072372 112.407837,231.153793 
	C111.965118,232.141693 111.522408,233.129593 111.026604,234.039536 
	C111.026604,234.039536 111.116432,234.068283 110.395912,234.158188 
	C109.981087,235.168900 109.566269,236.179611 109.096306,237.083862 
	C109.096306,237.083862 109.203133,237.138290 108.467697,237.171204 
	C107.697144,238.845016 106.926590,240.518845 106.097832,242.080566 
	C106.097832,242.080566 106.207184,242.143768 105.493378,242.162857 
	C101.448006,249.419540 97.394661,256.671875 93.404663,263.958893 
	C93.308136,264.135162 93.917374,264.697845 94.143288,265.653900 
	C93.869209,266.138184 93.595131,266.622437 92.587425,267.148529 
	C92.169083,267.392456 91.510971,267.539459 91.367424,267.894531 
	C87.654732,277.077667 83.963043,286.269684 80.349670,295.492279 
	C79.424706,297.853119 78.699623,300.300995 78.020279,302.747101 
	C77.109497,306.026550 76.040359,309.304474 75.596222,312.656830 
	C75.276382,315.071045 72.432426,317.930145 76.270432,320.730194 
	C76.157150,321.154083 76.043861,321.577972 75.320145,322.104492 
	C73.779259,323.097412 72.331596,324.090607 75.343582,325.751099 
	C75.214577,326.167419 75.085579,326.583740 74.274467,327.136719 
	C72.796875,328.773834 69.947212,330.402863 74.328461,332.730286 
	C74.215576,333.153595 74.102692,333.576874 73.281616,334.143127 
	C71.102165,336.348053 69.088867,338.559540 73.013802,341.757263 
	C72.962151,342.505829 72.910500,343.254364 72.107124,344.144043 
	C71.430664,344.987579 70.109680,345.891388 70.182014,346.664886 
	C70.662361,351.801025 71.441132,356.909302 72.314728,362.803864 
	C72.241043,363.862579 72.167366,364.921295 71.536530,366.483887 
	C71.646988,368.988190 71.757439,371.492523 71.997711,374.824371 
	C71.954048,376.217010 71.910385,377.609650 71.228088,379.144012 
	C68.465309,382.127533 72.190094,383.123657 73.247803,385.629333 
	C73.226112,386.066162 73.204422,386.502991 72.433075,387.114990 
	C69.837021,390.302643 70.338875,392.925842 73.996353,395.655609 
	C74.000587,396.102539 74.004829,396.549500 73.297775,397.157990 
	C71.324951,401.741333 73.305267,405.442657 76.166161,409.618683 
	C76.186981,410.055634 76.207802,410.492554 75.512482,411.067078 
	C75.123955,411.355408 74.366432,411.701355 74.401138,411.923645 
	C75.169403,416.844543 75.636055,421.858337 76.944710,426.639709 
	C79.744888,436.870483 82.816971,447.036194 86.121811,457.115723 
	C87.858986,462.413971 90.259033,467.502167 92.530357,472.609344 
	C92.837654,473.300354 94.142891,473.547516 95.410400,474.489166 
	C95.720383,475.285187 96.030373,476.081177 95.782288,477.253387 
	C97.419464,481.571442 98.823219,486.000488 100.799675,490.157227 
	C101.688377,492.026245 103.721252,493.351227 105.762627,495.317596 
	C106.865204,497.201874 107.967789,499.086151 109.171646,501.663177 
	C114.105881,509.954468 118.894272,518.336731 123.999184,526.521606 
	C148.056503,565.093323 176.340576,600.348999 208.096222,633.522400 
	C208.386887,633.717834 208.677567,633.913269 209.215210,634.710693 
	C211.095734,636.486389 212.976242,638.262085 215.075775,640.544128 
	C215.374374,640.746460 215.672958,640.948792 215.972275,641.027649 
z"/>
<path fill="#e53935" opacity="1.000000" stroke="none" 
	d="
M916.078369,500.216949 
	C916.078369,500.216949 916.065002,500.628662 915.788391,500.956421 
	C915.277832,501.529388 915.130737,501.818787 915.070557,502.152313 
	C915.070557,502.152313 915.063660,502.047455 914.777954,502.187164 
	C914.046997,503.617310 913.601807,504.907745 913.156616,506.198181 
	C913.156616,506.198181 913.106201,506.091278 912.805481,506.106934 
	C911.988831,507.409607 911.472900,508.696625 910.957031,509.983612 
	C897.585022,529.768616 885.279114,550.390259 870.573608,569.128723 
	C851.826172,593.017700 831.138977,615.384277 810.911377,638.794739 
	C810.234192,639.378967 810.069031,639.656250 810.039368,640.014221 
	C810.039368,640.014221 809.996826,640.000488 809.783447,640.122009 
	C809.179749,640.528625 808.789490,640.813660 808.116272,641.195923 
	C807.569763,641.581299 807.306213,641.869507 806.914795,642.463867 
	C804.066772,645.802795 801.346741,648.835632 798.626709,651.868469 
	C791.497070,659.019043 784.367432,666.169556 776.815979,673.775391 
	C774.913757,675.815125 773.433350,677.399536 771.953003,678.983948 
	C770.392151,680.458679 768.831360,681.933411 766.837402,683.833923 
	C764.945618,685.842773 763.486938,687.425842 762.028259,689.008911 
	C746.512329,703.863342 731.537354,719.337524 715.372498,733.448425 
	C676.847107,767.078552 637.879395,800.206177 598.854858,833.258728 
	C575.339966,853.175049 551.549011,872.775452 527.556335,892.113525 
	C515.476440,901.849854 516.359009,903.044678 502.352234,892.602295 
	C475.261749,872.405640 448.591461,851.594238 422.487213,830.137085 
	C375.378235,791.414490 328.904633,751.925415 284.718018,709.838379 
	C281.583191,706.852478 278.500946,703.811340 275.101868,700.261597 
	C274.505432,699.493530 274.201416,699.259827 273.897400,699.026062 
	C273.318817,698.570984 272.740204,698.115906 271.938293,697.161377 
	C271.431580,696.453003 271.148163,696.244202 270.864746,696.035339 
	C268.309479,693.628967 265.754242,691.222534 262.948792,688.261108 
	C262.396790,687.489746 262.095032,687.273376 261.793274,687.056946 
	C255.250534,680.681885 248.707809,674.306885 241.916824,667.354492 
	C241.343033,666.545715 241.017487,666.314209 240.691925,666.082703 
	C238.191910,663.668518 235.691895,661.254333 232.946686,658.284180 
	C232.409668,657.496765 232.117844,657.265381 231.826004,657.033936 
	C231.825989,657.033997 231.968658,657.033569 231.842834,656.857422 
	C231.426407,656.466431 231.135803,656.251648 230.845215,656.036865 
	C230.845200,656.036865 230.971741,656.027649 230.839233,655.847778 
	C230.406189,655.463013 230.105652,655.258057 229.805130,655.053101 
	C228.269089,653.650269 226.733063,652.247437 224.935516,650.297852 
	C224.363358,649.523621 224.052704,649.296204 223.742065,649.068787 
	C221.890961,647.313538 220.039856,645.558289 217.949554,643.254883 
	C217.422287,642.482239 217.134201,642.257629 216.846130,642.033020 
	C216.846130,642.033020 216.972931,642.029358 216.843994,641.851074 
	C216.426361,641.460266 216.137665,641.247681 215.848969,641.035034 
	C215.848984,641.035034 215.972275,641.027649 215.843658,640.850403 
	C215.428940,640.461365 215.142853,640.249573 214.856750,640.037781 
	C212.976242,638.262085 211.095734,636.486389 208.963257,634.182190 
	C208.435181,633.446594 208.159058,633.239441 207.882919,633.032349 
	C176.340576,600.348999 148.056503,565.093323 123.999184,526.521606 
	C118.894272,518.336731 114.105881,509.954468 109.347015,501.097534 
	C107.936340,498.047791 106.350296,495.563660 104.488770,492.850159 
	C103.193207,490.053528 102.173141,487.486237 101.425217,484.931091 
	C101.783936,484.841736 101.870506,484.740204 101.957077,484.638702 
	C101.679817,484.690338 101.402557,484.741974 101.005760,484.776855 
	C100.886223,484.760071 100.729111,484.576782 100.838470,484.161133 
	C98.293373,478.496155 95.638908,473.246796 92.887245,467.918518 
	C92.790047,467.839630 92.891754,467.610840 92.915741,467.188660 
	C92.282433,465.509583 91.625145,464.252686 90.878845,462.920105 
	C90.789841,462.844360 90.893875,462.635010 90.917297,462.185425 
	C89.618591,455.987854 88.422409,450.207306 86.946968,444.498993 
	C84.239296,434.023285 81.373184,423.588440 78.557198,413.140869 
	C78.091103,411.411652 77.544067,409.704224 77.029465,407.535400 
	C76.065948,402.309021 75.107414,397.533997 74.083450,392.660461 
	C73.937088,392.276428 73.975456,392.019958 74.294495,391.176208 
	C74.308586,385.117584 73.871574,379.664642 74.071686,374.235199 
	C74.553703,361.156891 74.588989,347.996368 76.209442,335.044800 
	C77.741982,322.795807 81.077820,310.773407 83.594040,298.645874 
	C84.400673,294.758118 85.122940,290.852875 85.889114,286.632446 
	C86.244263,285.541931 86.594101,284.774628 87.297882,283.945831 
	C89.066513,279.758606 90.481216,275.632812 91.868042,271.357574 
	C91.840172,271.208099 92.056190,270.994019 92.390221,270.938354 
	C93.424789,268.891602 94.125328,266.900513 94.874222,264.551758 
	C98.684120,256.843994 102.445656,249.493896 106.207184,242.143768 
	C106.207184,242.143768 106.097832,242.080566 106.395950,241.942062 
	C107.530418,240.248474 108.366776,238.693375 109.203133,237.138290 
	C109.203133,237.138290 109.096306,237.083862 109.388062,236.963715 
	C110.158691,235.918457 110.637566,234.993378 111.116432,234.068283 
	C111.116432,234.068283 111.026604,234.039536 111.313187,233.904343 
	C112.106689,232.870224 112.613609,231.971298 113.120529,231.072372 
	C113.120529,231.072372 113.030121,231.037659 113.322647,230.914276 
	C114.127129,229.892349 114.639076,228.993805 115.151024,228.095276 
	C115.151024,228.095276 115.054047,228.055832 115.347549,227.939072 
	C116.162376,226.928741 116.683693,226.035172 117.205017,225.141602 
	C117.205025,225.141602 117.096245,225.082626 117.405212,224.950516 
	C120.544319,220.904083 123.374474,216.989761 126.204620,213.075439 
	C138.716888,200.632858 151.229172,188.190292 164.187500,175.353607 
	C165.558441,174.203552 166.483322,173.447632 167.408203,172.691696 
	C167.408203,172.691696 167.585846,172.630066 167.902985,172.388336 
	C169.884171,170.823700 171.548218,169.500793 173.212265,168.177872 
	C173.212265,168.177872 173.086319,168.110596 173.384140,168.088257 
	C174.252396,167.637329 174.822830,167.208725 175.393265,166.780121 
	C175.393265,166.780121 175.635025,166.734177 175.973114,166.467789 
	C178.542908,164.805939 180.774612,163.410492 183.192657,162.230881 
	C183.904160,161.917145 184.429291,161.387558 184.954422,160.857986 
	C184.954422,160.857986 185.017853,160.525253 185.282318,160.306885 
	C185.843994,159.938324 186.158905,159.871552 186.896652,159.908508 
	C188.175262,159.206238 189.048737,158.483673 190.039169,157.535034 
	C190.628845,157.145996 191.101532,156.983063 191.975494,156.862564 
	C193.487091,156.648514 194.718216,156.618942 195.689789,156.101776 
	C212.985519,146.895401 231.174011,140.011490 250.076538,134.932404 
	C250.828384,134.730392 251.359222,133.705750 252.276855,132.921570 
	C252.977844,132.724716 253.395004,132.670685 254.026306,132.914490 
	C257.824402,132.170258 261.408386,131.128174 265.333740,129.956604 
	C266.394348,129.865601 267.113525,129.904083 268.125488,129.969482 
	C268.613647,129.998489 268.809021,130.000595 269.457581,130.007919 
	C279.104218,129.334503 288.301636,128.701111 297.484894,127.904655 
	C298.365845,127.828247 299.158722,126.736549 300.406372,126.045578 
	C302.215393,126.012146 303.610596,126.049324 305.112305,126.465012 
	C309.701385,127.508835 314.165375,128.370483 318.670593,128.796005 
	C326.516785,129.537094 334.623627,129.014206 342.199554,130.804993 
	C357.148346,134.338593 371.799957,139.123154 386.600555,143.297958 
	C388.334076,143.786942 390.231567,143.694473 392.338928,143.877441 
	C393.117828,144.133835 393.610809,144.384323 394.249390,144.944061 
	C395.025665,145.414703 395.656403,145.576096 396.221863,145.744598 
	C396.156616,145.751724 396.199280,145.627579 396.267151,145.985535 
	C399.263947,147.473221 402.192902,148.602951 405.439270,149.788422 
	C406.878784,150.433655 408.000824,151.023163 409.121826,151.940582 
	C409.798462,152.403717 410.476135,152.538956 411.432709,152.724182 
	C412.173615,153.067719 412.635590,153.361267 413.252686,153.962585 
	C414.039612,154.480820 414.671356,154.691299 415.567291,154.917694 
	C416.239685,155.233337 416.647919,155.533096 417.092041,156.200806 
	C418.842987,157.296463 420.558014,158.024170 422.184753,158.783234 
	C422.096466,158.814590 422.241638,158.696060 422.195007,159.016708 
	C424.096344,160.231491 426.044281,161.125626 428.330780,162.080429 
	C431.438538,163.774979 434.207733,165.408844 436.976959,167.042725 
	C436.976959,167.042725 436.990173,166.993896 437.146362,167.267349 
	C438.195465,168.045624 439.088409,168.550446 439.981323,169.055267 
	C467.829041,188.091919 491.261810,211.704987 512.164246,240.003815 
	C536.447754,207.210709 564.824036,180.255936 599.883057,160.330124 
	C601.586060,159.603027 602.738342,158.715332 603.890686,157.827621 
	C603.890686,157.827621 603.922913,157.924179 604.266907,157.930328 
	C605.868286,157.566696 607.184753,157.330734 608.374023,156.806396 
	C620.340088,151.530624 632.100464,145.729645 644.282593,141.017120 
	C659.980591,134.944580 676.215027,130.751602 693.270447,130.751419 
	C694.187317,130.751404 695.104187,129.634674 696.487061,129.028793 
	C701.520447,129.012680 706.096619,129.163239 710.650391,128.910721 
	C712.191284,128.825287 713.675598,127.720070 715.509521,127.006226 
	C716.491821,126.981209 717.150452,127.030853 718.005127,127.505096 
	C726.681763,128.403030 735.162231,128.877747 743.643677,129.334839 
	C743.755615,129.340866 743.879517,129.123428 744.376343,128.960144 
	C745.507690,129.006927 746.260620,129.103882 747.121216,129.557159 
	C750.868225,130.592255 754.507446,131.271042 758.371582,131.975815 
	C758.596497,132.001801 759.027588,132.140289 759.291504,132.386169 
	C760.488831,132.964905 761.406921,133.351242 762.357910,133.622406 
	C773.913635,136.917328 785.459045,140.250092 797.042419,143.445282 
	C800.661560,144.443604 804.386353,145.058731 808.388184,145.860687 
	C809.476501,146.256836 810.239319,146.641556 811.076233,147.392349 
	C813.266174,148.467102 815.382019,149.175751 817.780823,149.889313 
	C818.708557,150.260590 819.353333,150.626984 820.134644,151.213531 
	C820.566284,151.606216 820.861511,151.778763 821.376709,151.967682 
	C821.596802,151.984055 822.018677,152.114044 822.158386,152.313263 
	C822.547546,152.732101 822.834473,152.877762 823.376099,152.967163 
	C823.593323,152.984879 824.007996,153.118790 824.005005,153.428589 
	C825.056091,154.139740 826.110168,154.541107 827.385498,154.966583 
	C827.606750,154.990707 828.024719,155.143784 828.210205,155.341492 
	C828.736328,155.652542 829.076904,155.765900 829.677307,155.893066 
	C830.304321,156.232315 830.671448,156.557770 831.066223,157.211746 
	C832.391663,158.039551 833.689453,158.538849 835.298462,159.084351 
	C836.357422,159.493362 837.105225,159.856155 837.853088,160.218964 
	C837.853088,160.218948 837.907715,160.113480 838.042236,160.413940 
	C840.094177,161.848404 842.011719,162.982391 843.929199,164.116394 
	C843.929199,164.116409 843.964233,164.026443 844.088867,164.317963 
	C845.108276,165.125839 846.003052,165.642197 846.897766,166.158569 
	C846.897766,166.158569 846.940979,166.059875 847.058044,166.359619 
	C848.078430,167.211700 848.981812,167.764023 849.885132,168.316360 
	C849.950073,168.638672 850.137268,168.855438 850.836487,169.272705 
	C852.117310,170.144119 853.008301,170.709503 853.899353,171.274872 
	C853.965576,171.606232 854.158142,171.827667 854.865906,172.258713 
	C856.479309,173.424133 857.703918,174.270035 858.928528,175.115936 
	C858.928528,175.115936 858.967896,175.026810 859.087402,175.334366 
	C860.436829,176.521469 861.666748,177.401016 862.896606,178.280579 
	C872.848877,187.984512 882.801147,197.688446 892.885376,208.074829 
	C894.079468,209.790237 895.141479,210.823212 896.203552,211.856171 
	C896.203552,211.856171 896.096313,211.887222 896.190247,212.089294 
	C896.565857,212.512070 896.847595,212.732773 897.129272,212.953476 
	C897.129272,212.953476 897.049744,212.956345 897.046265,213.304382 
	C898.131470,214.732681 899.220032,215.812912 900.308594,216.893158 
	C900.631775,216.935959 900.853699,217.108765 901.004028,218.006866 
	C902.069031,219.705948 903.104492,220.809753 904.139893,221.913559 
	C904.139893,221.913559 904.048218,221.945770 904.051880,222.317551 
	C905.338440,224.150543 906.621338,225.611755 907.858276,227.109955 
	C907.812317,227.146957 907.761414,227.040436 907.563477,227.443878 
	C908.090088,228.324631 908.814758,228.801956 909.539368,229.279282 
	C909.539368,229.279282 909.680664,229.410843 909.538147,229.835251 
	C909.996277,230.816666 910.596863,231.373688 911.197510,231.930695 
	C911.197510,231.930695 911.531616,231.984436 911.744873,232.335999 
	C912.682251,233.934021 913.406372,235.180450 914.104858,236.840027 
	C914.825500,238.088623 915.571655,238.924088 916.256287,239.792221 
	C916.194763,239.824905 916.258362,239.700943 916.191284,240.081818 
	C916.811768,241.286606 917.499268,242.110519 918.400513,243.034943 
	C918.782532,243.563889 918.950867,243.992325 919.096008,244.841553 
	C920.132629,248.516403 919.443115,252.849411 924.251587,253.831177 
	C924.192322,253.907425 924.255493,253.724945 924.215820,254.065186 
	C924.583618,254.870819 924.991028,255.336197 925.330566,255.812485 
	C925.262756,255.823380 925.305786,255.692795 925.220825,256.088593 
	C926.071411,260.092346 926.205383,264.154877 930.676880,266.113892 
	C931.336365,267.531586 931.782593,268.713745 931.959473,270.093384 
	C931.803284,271.213623 931.763000,272.188019 932.054016,273.050720 
	C934.056396,278.988831 936.029175,284.940216 938.205383,290.815491 
	C940.342957,296.586365 942.709839,302.272308 945.005249,308.212769 
	C945.034302,308.430084 945.039551,308.868530 945.028259,309.212708 
	C945.325928,310.366302 945.634888,311.175690 945.985107,312.202576 
	C946.026306,312.420135 946.041260,312.862732 946.025879,313.206604 
	C946.318115,314.361084 946.625732,315.171692 946.979736,316.202423 
	C947.026123,316.422546 947.038086,316.872284 947.024170,317.243988 
	C947.324951,318.739685 947.639587,319.863678 947.993286,321.202942 
	C948.032349,321.418243 948.043640,321.855743 948.022949,322.243958 
	C948.287964,324.076447 948.573669,325.520782 948.932495,327.183777 
	C949.005615,327.402466 949.041260,327.862305 949.022217,328.320740 
	C949.691040,332.527344 950.378967,336.275513 951.105957,340.446289 
	C951.129883,342.563141 951.114685,344.257355 950.821777,346.202759 
	C951.079529,349.322968 951.614929,352.192047 952.161255,355.497681 
	C952.069092,357.967560 951.966064,360.000824 951.606445,362.354645 
	C951.577637,368.120758 951.805359,373.566284 952.108276,379.409790 
	C952.078857,380.877441 951.974243,381.947144 951.589355,383.055054 
	C951.242065,383.745575 951.175049,384.397888 951.069946,385.424591 
	C950.974976,386.546936 950.918091,387.294922 950.611389,388.330658 
	C949.586182,395.451385 948.810852,402.284302 948.011780,409.343872 
	C947.988037,409.570496 947.857849,410.007233 947.513428,410.100403 
	C946.124573,414.188507 945.039307,418.173279 944.043518,422.180237 
	C941.493225,432.441528 939.947998,443.078217 936.230713,452.894470 
	C930.616516,467.720154 923.484558,481.970154 917.045776,496.486176 
	C916.531860,497.644867 916.392029,498.969452 916.078369,500.216949 
M642.611572,653.624878 
	C642.611572,653.624878 642.640747,653.573975 643.206665,653.609131 
	C643.316528,653.285828 643.426392,652.962585 643.598328,652.605225 
	C643.598328,652.605225 643.645935,652.552734 644.209229,652.603455 
	C644.335388,652.283508 644.461487,651.963562 644.933777,651.904358 
	C644.933777,651.904358 644.607910,651.618652 645.240540,651.588013 
	C645.484619,651.042603 645.728699,650.497253 645.999695,650.000000 
	C645.999695,650.000000 645.950806,649.974121 646.605530,649.908264 
	C647.060974,649.252869 647.516418,648.597473 647.993713,648.000305 
	C647.993713,648.000305 647.938416,647.971741 648.616089,647.921143 
	C649.666992,646.278625 650.717896,644.636108 652.003052,642.322693 
	C653.010254,641.118286 654.103882,639.975342 655.010071,638.699219 
	C659.677063,632.127991 664.295837,625.522461 669.362427,619.227234 
	C671.365112,614.924011 673.989136,610.795410 675.256226,606.285522 
	C679.381897,591.601013 683.138977,576.808167 686.737732,561.984131 
	C687.578430,558.521179 689.090454,557.929260 692.306824,558.198364 
	C705.269714,559.282837 718.242249,560.451782 731.235291,560.923096 
	C745.228882,561.430725 758.496460,557.409119 771.445923,552.595337 
	C775.819458,550.969604 779.763245,548.187683 784.264404,545.323853 
	C793.807678,539.747681 803.573486,534.514954 812.840393,528.512207 
	C825.718384,520.170349 838.245850,511.285278 850.875549,502.563568 
	C856.671326,498.561157 860.296631,486.854187 858.050659,479.943390 
	C855.682129,472.655334 853.387390,465.342590 850.949646,458.077820 
	C843.465332,435.773346 835.960632,413.565887 822.104797,394.021423 
	C807.656555,373.641327 794.198059,352.561951 779.922791,332.055725 
	C774.502075,324.268921 768.011108,317.227234 762.238281,309.305420 
	C760.731384,307.827911 759.485168,305.693390 757.676758,304.975616 
	C741.567566,298.582031 725.416504,292.279541 709.117676,286.393677 
	C706.677368,285.512390 703.406982,286.929871 700.520630,287.283936 
	C700.708069,287.873962 700.895508,288.464020 700.790527,289.674316 
	C691.178223,297.201294 683.847351,306.553406 678.785461,317.632416 
	C676.143433,323.415222 677.792297,328.592987 682.999573,332.888184 
	C683.369507,333.969696 683.739441,335.051208 684.008911,336.796844 
	C683.958313,337.241394 683.907715,337.685944 683.195496,338.205658 
	C682.306274,339.658112 681.417053,341.110565 679.893005,343.599945 
	C682.145264,342.685089 682.992310,342.341034 683.968872,342.785828 
	C683.938049,343.583160 683.907227,344.380524 683.219543,345.239258 
	C681.816650,349.315979 684.025879,351.813049 690.004333,352.998749 
	C690.004333,352.998749 690.010559,352.938599 690.495850,353.521515 
	C698.296692,354.294098 706.098633,355.604156 713.897888,355.588379 
	C717.261047,355.581573 722.231506,355.865631 723.685242,350.652863 
	C723.685242,350.652863 723.664612,350.707855 724.346497,350.555267 
	C726.741089,348.142578 727.697083,343.873322 732.734985,345.050354 
	C736.064575,345.828308 739.607727,345.691803 742.998291,345.993073 
	C742.998291,345.993073 743.031921,345.938904 743.111755,346.588623 
	C743.759216,347.048340 744.406738,347.508087 745.007019,348.004150 
	C745.007019,348.004150 745.033875,347.951233 745.059387,348.559113 
	C745.389404,349.032806 745.719421,349.506500 745.999634,349.998383 
	C745.999634,349.998383 746.037109,349.960632 746.055908,350.568756 
	C746.390442,351.039978 746.724976,351.511230 747.003601,352.000977 
	C747.003601,352.000977 747.037842,351.952942 747.019592,352.740204 
	C748.348877,356.837372 749.181152,361.183990 751.091370,364.989563 
	C760.508789,383.750916 761.781128,404.029419 763.117004,424.422729 
	C763.741150,433.949982 765.277893,443.492645 767.377930,452.808105 
	C768.137390,456.177185 771.747925,458.903534 774.695374,462.210419 
	C777.168152,465.873596 779.640930,469.536804 782.113708,473.200012 
	C781.898132,473.364410 781.682556,473.528809 781.466980,473.693176 
	C772.948730,467.153656 764.430481,460.614105 756.154175,453.498657 
	C755.680115,452.626495 755.384277,451.182709 754.704346,450.970612 
	C747.949951,448.863708 741.236267,445.899017 734.310608,445.219360 
	C719.693176,443.784912 707.445801,451.166931 695.244690,457.943176 
	C694.308960,458.462860 693.905273,459.940491 692.909668,461.604462 
	C691.608582,461.344940 690.307434,461.085419 689.239563,460.285950 
	C688.824585,459.527008 688.599854,458.398804 687.962891,458.070557 
	C684.416687,456.242981 680.841736,454.433167 677.146057,452.940399 
	C662.611877,447.069946 647.364868,446.749207 632.131165,448.236267 
	C626.134277,448.821625 620.337524,451.505737 614.480591,453.333374 
	C614.193420,453.422974 614.204224,454.467926 613.722412,455.676086 
	C610.024536,457.778992 606.380310,459.985016 602.608704,461.946014 
	C600.350708,463.120056 597.261536,465.355103 595.627991,464.640320 
	C584.738159,459.875397 573.539429,455.478638 565.298950,446.690338 
	C565.000610,445.692719 564.971375,444.473694 564.361389,443.732544 
	C559.520142,437.850037 559.518494,430.912598 560.104553,423.952759 
	C560.916321,414.311829 562.042664,404.697388 563.749512,395.014160 
	C565.329285,393.545105 566.909058,392.076050 568.557068,390.582153 
	C568.557068,390.582153 568.609192,390.531677 569.328491,390.596710 
	C570.050049,389.730286 570.895752,388.939178 571.473999,387.985809 
	C576.938782,378.975586 577.962646,369.171631 577.100769,358.858124 
	C576.504150,351.718292 575.450623,350.206482 568.362793,349.887299 
	C571.903503,335.531738 569.685608,321.200684 567.559448,307.020111 
	C566.825989,302.128601 563.269409,297.660370 560.919067,292.304901 
	C558.973145,291.063599 557.027283,289.822296 555.301025,288.377625 
	C555.301025,288.377625 555.413452,288.654999 555.610718,287.895264 
	C554.959229,287.198059 554.409180,286.353058 553.641052,285.825653 
	C540.875916,277.060577 526.195251,274.191803 511.239899,273.166443 
	C500.114075,272.403625 489.481079,275.956543 479.805756,281.282440 
	C472.631653,285.231537 465.011780,289.078491 460.376923,297.337219 
	C455.820282,303.356171 455.403839,310.584625 455.113007,317.600220 
	C454.672974,328.215424 454.998077,338.862396 454.998077,349.536499 
	C447.902069,351.064209 445.458221,353.918365 446.054871,359.973389 
	C446.442780,363.910248 446.278625,367.952515 447.126740,371.777954 
	C447.900757,375.269073 449.704620,378.531921 451.675201,382.240387 
	C454.508087,387.148712 455.791626,393.442993 462.959900,394.549866 
	C463.966644,406.868713 465.341217,419.096222 465.835236,431.359192 
	C466.160736,439.438599 462.942108,446.449280 455.638641,450.775726 
	C448.479065,455.017029 441.046234,458.800262 433.923859,463.100128 
	C428.772278,466.210175 424.666718,465.029297 420.823761,460.367828 
	C413.543945,456.638306 406.636902,451.198029 398.911255,449.514587 
	C379.298737,445.241028 359.717316,446.460907 341.288483,455.575928 
	C339.283844,456.567444 337.777100,458.565643 335.599731,460.709442 
	C334.003723,460.562836 332.189514,460.857178 330.849274,460.193817 
	C324.846039,457.222321 318.977814,453.978180 313.252747,450.287018 
	C312.837189,449.706299 312.548553,448.826141 311.987640,448.588379 
	C294.548798,441.196899 278.484680,444.392548 263.520569,455.155884 
	C262.687531,455.755127 262.621918,457.421387 261.614685,459.022949 
	C255.716888,463.700256 249.819107,468.377563 243.921310,473.054871 
	C243.664246,472.819183 243.407166,472.583466 243.150085,472.347778 
	C245.417770,469.205658 247.685471,466.063538 250.259033,463.230499 
	C250.498932,462.805695 250.738815,462.380890 250.999863,462.003143 
	C250.999863,462.003143 250.949661,461.991333 251.578842,461.710815 
	C253.715256,457.866180 256.698303,454.256287 257.840790,450.136017 
	C262.655762,432.771179 261.666718,414.757446 263.542389,396.431000 
	C264.349670,391.266418 265.156952,386.101868 265.985626,381.000183 
	C265.985626,381.000183 265.920135,380.988953 266.507080,380.593475 
	C267.597046,378.213531 268.803162,375.879059 269.756073,373.445435 
	C273.206543,364.633453 276.571991,355.788116 280.000946,346.998444 
	C280.000946,346.998444 279.949707,346.984070 280.412170,346.741516 
	C280.568573,346.438202 280.724945,346.134918 280.928284,345.833862 
	C280.928284,345.833862 280.892700,345.857361 281.813690,345.953430 
	C286.891602,345.290161 291.969482,344.626862 297.000214,344.000000 
	C297.000214,344.000000 297.031952,343.949585 297.057800,344.562592 
	C297.396301,345.037445 297.734772,345.512329 298.008392,345.996155 
	C298.008392,345.996155 298.035553,345.936554 298.070892,346.593842 
	C298.733154,347.390411 299.395416,348.186951 300.003326,349.001495 
	C300.003326,349.001495 300.030182,348.950958 300.075012,349.584137 
	C300.515533,349.927704 300.956055,350.271240 301.347473,350.972961 
	C301.347473,350.972961 301.420197,350.616302 301.366272,351.306335 
	C302.259735,351.861084 303.153229,352.415833 303.997162,352.996857 
	C303.997162,352.996857 304.014984,352.943695 304.355957,353.614807 
	C305.200226,354.076843 305.993286,354.735992 306.896606,354.970642 
	C316.495636,357.463989 325.896637,355.139679 335.315735,353.628052 
	C335.946716,353.526794 336.432404,352.520264 337.001129,351.993988 
	C337.001129,351.993988 336.945923,351.967621 337.655579,351.984772 
	C338.694763,350.655823 339.733948,349.326874 341.220306,347.283081 
	C341.247589,344.080566 341.102325,340.863800 341.364594,337.680634 
	C341.531403,335.656342 341.654785,332.963989 342.923676,331.817841 
	C346.942780,328.187408 348.981262,323.540833 346.808167,318.731995 
	C341.949188,307.979553 335.215332,298.530151 326.166809,290.486115 
	C324.566437,289.011566 323.170380,286.734772 321.314850,286.262177 
	C318.905457,285.648499 315.933594,285.917358 313.546051,286.767487 
	C301.575073,291.030029 289.701935,295.569885 277.825073,300.092926 
	C273.813507,301.620667 269.879883,303.357880 265.962921,305.115906 
	C265.748871,305.211975 266.017700,306.383820 265.735382,307.649719 
	C261.835907,311.431824 257.359619,314.782074 254.144287,319.076447 
	C244.207291,332.348145 234.404404,345.748169 225.195038,359.529785 
	C213.489182,377.047333 201.883987,394.674927 191.211853,412.829132 
	C179.410690,432.903931 174.613068,455.824188 167.517960,477.726990 
	C164.898529,485.813293 165.984390,495.278595 173.951935,501.228455 
	C183.592773,508.427856 193.506973,515.306824 203.659622,521.763611 
	C216.272263,529.784912 229.249954,537.232239 241.790543,545.332581 
	C242.546188,545.545471 243.301849,545.758301 243.998627,545.992493 
	C243.998627,545.992493 244.011520,545.931152 244.309372,546.566895 
	C245.559357,547.034729 246.809326,547.502563 248.003464,547.997620 
	C248.003464,547.997620 248.006393,547.935547 248.404160,548.512634 
	C252.622086,549.998352 256.839996,551.484131 260.998383,552.991943 
	C260.998383,552.991943 261.004669,552.928711 261.413208,553.476685 
	C262.293091,553.642212 263.172943,553.807739 263.997040,553.996033 
	C263.997040,553.996033 264.002930,553.936096 264.416260,554.481140 
	C265.297424,554.643555 266.178558,554.806030 266.999847,554.991455 
	C266.999847,554.991455 267.006012,554.927612 267.423981,555.523193 
	C269.580383,556.336853 271.680817,557.374695 273.901978,557.929138 
	C293.735229,562.879089 313.634460,561.560547 333.515198,558.269836 
	C336.370819,557.797241 337.616425,558.398376 338.378326,561.381592 
	C341.772491,574.671265 345.313812,587.927063 349.071075,601.118469 
	C350.518463,606.200134 352.672119,611.081543 354.575348,616.026794 
	C354.616913,616.134766 355.520752,615.910950 356.634338,616.216919 
	C362.812042,625.799744 368.989746,635.382507 374.730835,645.339966 
	C376.167908,646.882812 377.604980,648.425720 379.011322,650.005432 
	C379.011322,650.005432 379.021790,649.959534 379.232910,650.414062 
	C379.502686,650.602051 379.772430,650.789978 380.000000,651.000305 
	C380.000000,651.000305 380.021393,650.957764 380.248138,651.422241 
	C380.531616,651.607666 380.815094,651.793091 381.534210,652.136292 
	C381.809906,652.318604 381.970825,652.573364 382.079193,653.672363 
	C382.676697,655.219421 383.449005,656.723206 383.844910,658.320251 
	C388.232758,676.019958 392.386719,693.779480 396.954498,711.432190 
	C402.006653,730.956665 403.969543,750.854675 405.012329,770.902588 
	C405.261810,775.699280 405.446869,780.529358 406.216095,785.253723 
	C406.504852,787.027100 405.747528,790.860901 410.618042,790.113281 
	C417.259644,795.410461 423.930908,800.671021 430.535309,806.014221 
	C438.719269,812.635620 446.734619,819.470459 455.031769,825.945374 
	C463.499481,832.553406 472.318146,838.711121 480.805206,845.295410 
	C490.857849,853.094299 500.692810,861.173462 510.719757,869.006104 
	C511.475861,869.596802 513.291931,869.661926 514.134521,869.161621 
	C517.208740,867.336365 520.152832,865.265442 523.012329,863.109863 
	C531.430298,856.764343 539.813477,850.371704 548.155640,843.926819 
	C557.778809,836.492188 567.394775,829.046448 576.917480,821.484070 
	C584.281738,815.635864 591.545959,809.658508 598.764526,803.630737 
	C604.958923,798.458191 611.025635,793.132690 617.732117,788.135193 
	C618.125183,787.966064 618.844727,787.828003 618.864197,787.623352 
	C619.615967,779.728760 620.117126,771.806274 621.039856,763.932922 
	C622.825500,748.696655 624.033264,733.328491 626.980347,718.309326 
	C630.322144,701.278503 635.403198,684.593323 639.513123,667.705627 
	C640.547058,663.456909 640.759827,659.008240 641.472534,654.534729 
	C641.472534,654.534729 641.641724,654.539429 642.206848,654.603638 
	C642.322632,654.281250 642.438354,653.958923 642.611572,653.624878 
z"/>
<path fill="#ffffff" opacity="1.000000" stroke="none" 
	d="
M683.876465,345.177856 
	C683.907227,344.380524 683.938049,343.583160 683.964783,342.005127 
	C683.926147,340.193115 683.891663,339.161804 683.857056,338.130493 
	C683.907715,337.685944 683.958313,337.241394 684.383423,336.273315 
	C684.178467,334.552826 683.598877,333.355865 683.019348,332.158875 
	C677.792297,328.592987 676.143433,323.415222 678.785461,317.632416 
	C683.847351,306.553406 691.178223,297.201294 701.289551,289.326294 
	C704.360535,288.912018 707.106262,288.231110 709.470459,288.899567 
	C715.569275,290.624084 721.608337,292.679382 727.473816,295.084167 
	C739.055725,299.832672 750.504272,304.906616 762.007935,309.845978 
	C768.011108,317.227234 774.502075,324.268921 779.922791,332.055725 
	C794.198059,352.561951 807.656555,373.641327 822.104797,394.021423 
	C835.960632,413.565887 843.465332,435.773346 850.949646,458.077820 
	C853.387390,465.342590 855.682129,472.655334 858.050659,479.943390 
	C860.296631,486.854187 856.671326,498.561157 850.875549,502.563568 
	C838.245850,511.285278 825.718384,520.170349 812.840393,528.512207 
	C803.573486,534.514954 793.807678,539.747681 783.705566,545.651367 
	C780.724304,546.959717 778.277893,547.885742 775.883423,548.930603 
	C763.622681,554.280396 750.726562,557.455872 737.515991,558.779907 
	C728.805542,559.652954 719.928711,559.304688 711.150330,558.934387 
	C702.969788,558.589417 694.820923,557.492432 687.364502,556.792725 
	C681.069641,578.012146 675.000549,598.470581 668.931519,618.928955 
	C664.295837,625.522461 659.677063,632.127991 655.010071,638.699219 
	C654.103882,639.975342 653.010254,641.118286 651.598877,642.792908 
	C650.109314,644.832703 649.023865,646.402222 647.938416,647.971741 
	C647.938416,647.971741 647.993713,648.000305 647.704773,648.077209 
	C646.927490,648.760803 646.439148,649.367432 645.950806,649.974121 
	C645.950806,649.974121 645.999695,650.000000 645.712219,650.081848 
	C645.152466,650.648682 644.880188,651.133667 644.607910,651.618652 
	C644.607910,651.618652 644.933777,651.904358 644.518860,651.813904 
	C643.780762,651.905579 643.628113,652.182007 643.645935,652.552734 
	C643.645935,652.552734 643.598328,652.605225 643.333130,652.674561 
	C642.752075,652.931213 642.609680,653.207886 642.640747,653.573975 
	C642.640747,653.573975 642.611572,653.624878 642.349731,653.676880 
	C641.778015,653.910217 641.629333,654.180420 641.641724,654.539429 
	C641.641724,654.539429 641.472534,654.534729 641.086060,654.736938 
	C640.468811,655.352295 640.125916,655.739441 640.023682,656.182129 
	C637.496643,667.124573 635.090820,678.095947 632.457886,689.012634 
	C630.445557,697.356262 627.624390,705.536438 626.099548,713.958862 
	C623.431641,728.695129 621.199524,743.526123 619.333557,758.386292 
	C618.107117,768.153259 617.843567,778.041077 617.148804,787.874817 
	C611.025635,793.132690 604.958923,798.458191 598.764526,803.630737 
	C591.545959,809.658508 584.281738,815.635864 576.917480,821.484070 
	C567.394775,829.046448 557.778809,836.492188 548.155640,843.926819 
	C539.813477,850.371704 531.430298,856.764343 523.012329,863.109863 
	C520.152832,865.265442 517.208740,867.336365 514.134521,869.161621 
	C513.291931,869.661926 511.475861,869.596802 510.719757,869.006104 
	C500.692810,861.173462 490.857849,853.094299 480.805206,845.295410 
	C472.318146,838.711121 463.499481,832.553406 455.031769,825.945374 
	C446.734619,819.470459 438.719269,812.635620 430.535309,806.014221 
	C423.930908,800.671021 417.259644,795.410461 410.140137,789.598938 
	C409.112183,788.121277 408.161743,787.193298 408.072998,786.189209 
	C406.972992,773.740723 406.237732,761.255676 404.915680,748.832458 
	C403.862640,738.937744 402.787537,728.964966 400.568848,719.291321 
	C395.762970,698.337097 390.254883,677.542969 384.894440,656.719238 
	C384.527527,655.293884 383.003052,654.166626 382.016907,652.900696 
	C381.970825,652.573364 381.809906,652.318604 381.214783,651.814819 
	C380.604065,651.314758 380.312744,651.136230 380.021423,650.957764 
	C380.021393,650.957764 380.000000,651.000305 379.939209,650.743835 
	C379.592896,650.311401 379.307343,650.135498 379.021790,649.959534 
	C379.021790,649.959534 379.011322,650.005432 379.010254,649.646606 
	C377.728607,647.846924 376.448029,646.406128 375.167450,644.965332 
	C368.989746,635.382507 362.812042,625.799744 356.303986,615.666748 
	C349.929077,595.479553 343.884552,575.842468 337.825836,556.159363 
	C336.171570,556.413513 334.255096,556.810059 332.318604,556.987488 
	C324.296631,557.722595 316.278839,558.756226 308.239868,558.982727 
	C300.097839,559.212097 291.900085,558.984375 283.788757,558.261414 
	C278.140320,557.757935 272.596527,556.080566 267.006012,554.927612 
	C267.006012,554.927612 266.999847,554.991455 266.856903,554.679932 
	C265.810272,554.224304 264.906616,554.080200 264.002930,553.936096 
	C264.002930,553.936096 263.997040,553.996033 263.855225,553.683289 
	C262.810516,553.223267 261.907593,553.075989 261.004669,552.928711 
	C261.004669,552.928711 260.998383,552.991943 260.848633,552.665283 
	C256.468048,550.870972 252.237228,549.403259 248.006393,547.935547 
	C248.006393,547.935547 248.003464,547.997620 248.001617,547.593384 
	C246.670349,546.769836 245.340942,546.350464 244.011520,545.931152 
	C244.011520,545.931152 243.998627,545.992493 243.895477,545.708313 
	C243.218231,545.258545 242.644119,545.093018 242.070007,544.927490 
	C229.249954,537.232239 216.272263,529.784912 203.659622,521.763611 
	C193.506973,515.306824 183.592773,508.427856 173.951935,501.228455 
	C165.984390,495.278595 164.898529,485.813293 167.517960,477.726990 
	C174.613068,455.824188 179.410690,432.903931 191.211853,412.829132 
	C201.883987,394.674927 213.489182,377.047333 225.195038,359.529785 
	C234.404404,345.748169 244.207291,332.348145 254.144287,319.076447 
	C257.359619,314.782074 261.835907,311.431824 266.262878,307.308746 
	C282.332245,300.980927 297.931488,295.136719 313.382568,288.924011 
	C318.292267,286.949860 322.164734,287.888214 325.921143,291.071686 
	C335.215332,298.530151 341.949188,307.979553 346.808167,318.731995 
	C348.981262,323.540833 346.942780,328.187408 342.923676,331.817841 
	C341.654785,332.963989 341.531403,335.656342 341.364594,337.680634 
	C341.102325,340.863800 341.247589,344.080566 340.719055,347.762115 
	C339.127167,349.483307 338.036530,350.725464 336.945923,351.967621 
	C336.945923,351.967621 337.001129,351.993988 336.561096,351.988708 
	C325.444946,353.169556 314.804077,355.534485 304.014984,352.943695 
	C304.014984,352.943695 303.997162,352.996857 303.908325,352.689911 
	C303.019714,351.794067 302.219971,351.205200 301.420197,350.616302 
	C301.420197,350.616302 301.347473,350.972961 301.332703,350.513824 
	C300.888702,349.686768 300.459442,349.318848 300.030182,348.950958 
	C300.030182,348.950958 300.003326,349.001495 299.997131,348.665649 
	C299.339172,347.532043 298.687347,346.734314 298.035553,345.936554 
	C298.035553,345.936554 298.008392,345.996155 298.001801,345.682159 
	C297.674133,344.895294 297.353027,344.422455 297.031952,343.949585 
	C297.031952,343.949585 297.000214,344.000000 296.797882,343.649658 
	C291.361267,344.152008 286.126984,345.004669 280.892700,345.857361 
	C280.892700,345.857361 280.928284,345.833862 280.641205,345.906311 
	C280.219299,346.313843 280.084503,346.648956 279.949707,346.984070 
	C279.949707,346.984070 280.000946,346.998444 279.664734,347.114258 
	C277.543274,350.476685 275.339020,353.566956 274.057281,357.001526 
	C271.106567,364.908356 268.604340,372.982635 265.920135,380.988953 
	C265.920135,380.988953 265.985626,381.000183 265.650024,381.171448 
	C264.265320,386.560272 263.216217,391.777832 262.104492,397.422272 
	C261.364899,407.674194 260.749878,417.504059 259.982147,427.321991 
	C259.650238,431.566437 259.533508,435.936859 258.384003,439.984497 
	C256.271271,447.423859 253.466187,454.666626 250.949661,461.991333 
	C250.949661,461.991333 250.999863,462.003143 250.751434,462.057648 
	C250.319717,462.381897 250.136429,462.651672 249.953156,462.921417 
	C247.685471,466.063538 245.417770,469.205658 243.150085,472.347778 
	C243.407166,472.583466 243.664246,472.819183 243.921310,473.054871 
	C249.819107,468.377563 255.716888,463.700256 262.197754,458.744873 
	C277.986389,445.684265 294.854065,443.848694 313.060852,450.832458 
	C318.977814,453.978180 324.846039,457.222321 330.849274,460.193817 
	C332.189514,460.857178 334.003723,460.562836 336.189270,460.377319 
	C350.825806,452.084412 365.849396,448.561829 381.996796,449.965851 
	C386.026459,450.316254 390.362244,449.517761 394.069550,450.734131 
	C403.136566,453.708923 411.918549,457.552521 420.815277,461.046387 
	C424.666718,465.029297 428.772278,466.210175 433.923859,463.100128 
	C441.046234,458.800262 448.479065,455.017029 455.638641,450.775726 
	C462.942108,446.449280 466.160736,439.438599 465.835236,431.359192 
	C465.341217,419.096222 463.966644,406.868713 462.959900,394.549866 
	C455.791626,393.442993 454.508087,387.148712 451.320618,381.674286 
	C450.652771,380.184113 450.153015,379.278961 450.057068,378.332825 
	C449.510773,372.945801 449.604431,367.428711 448.444397,362.185059 
	C446.893585,355.174622 448.737000,350.488556 457.882599,352.731201 
	C454.807556,333.776886 454.909088,315.158844 462.389740,296.986816 
	C481.277710,277.761841 503.737457,271.627411 529.270447,278.143860 
	C538.291382,280.446167 546.716370,285.083649 555.413452,288.654999 
	C555.413452,288.654999 555.301025,288.377625 555.102356,288.698669 
	C556.573364,290.389069 558.243042,291.758453 559.955933,293.482391 
	C566.865784,302.624634 567.208862,313.306824 567.821899,323.601318 
	C568.394287,333.215485 567.372314,342.924561 567.044922,352.809906 
	C567.507751,352.714722 568.425354,352.587128 569.306946,352.334167 
	C573.130737,351.237274 575.672424,353.582458 575.783325,356.564972 
	C576.096924,365.001068 576.462036,373.584198 572.710449,381.582184 
	C571.316895,384.552948 569.974792,387.547821 568.609253,390.531677 
	C568.609192,390.531677 568.557068,390.582153 568.223877,390.678345 
	C566.257568,391.925995 564.624512,393.077454 562.649048,394.402832 
	C561.868286,397.971985 561.426941,401.366760 560.992310,404.762451 
	C560.409912,409.312134 560.084961,413.911987 559.202698,418.402496 
	C557.172485,428.736023 557.069092,438.595367 564.735901,447.007507 
	C573.539429,455.478638 584.738159,459.875397 595.627991,464.640320 
	C597.261536,465.355103 600.350708,463.120056 602.608704,461.946014 
	C606.380310,459.985016 610.024536,457.778992 614.281189,455.334656 
	C629.932251,448.809265 645.547913,449.280182 661.390869,450.827545 
	C671.575928,451.822266 680.043945,456.841522 689.006348,460.825897 
	C690.307434,461.085419 691.608582,461.344940 693.411011,461.248474 
	C699.128601,458.203644 704.327576,455.480835 709.564209,452.832367 
	C725.229797,444.909332 740.701904,444.746185 755.912231,454.074585 
	C764.430481,460.614105 772.948730,467.153656 781.466980,473.693176 
	C781.682556,473.528809 781.898132,473.364410 782.113708,473.200012 
	C779.640930,469.536804 777.168152,465.873596 774.223999,461.748688 
	C771.510803,455.555725 768.109497,449.992371 767.250488,444.060913 
	C764.921631,427.979279 763.691162,411.739410 761.987427,395.566254 
	C760.336243,379.891693 753.673767,365.924438 747.037842,351.952942 
	C747.037842,351.952942 747.003601,352.000977 746.995239,351.684967 
	C746.670288,350.899506 746.353699,350.430054 746.037109,349.960632 
	C746.037109,349.960632 745.999634,349.998383 745.993530,349.680847 
	C745.669556,348.892639 745.351746,348.421936 745.033875,347.951233 
	C745.033875,347.951233 745.007019,348.004150 744.965210,347.674805 
	C744.292847,346.876617 743.662415,346.407776 743.031921,345.938904 
	C743.031921,345.938904 742.998291,345.993073 742.845581,345.676910 
	C739.741394,344.911652 736.790955,344.455963 733.838318,344.014893 
	C727.086304,343.006226 725.822937,343.840118 723.664612,350.707855 
	C723.664612,350.707855 723.685242,350.652863 723.304749,350.734253 
	C718.864746,351.863647 714.832520,353.642639 710.739563,353.795776 
	C703.850220,354.053558 696.922241,353.278931 690.010559,352.938599 
	C690.010559,352.938599 690.004333,352.998749 690.007141,352.607117 
	C687.965454,349.869629 685.920959,347.523743 683.876465,345.177856 
M626.932861,596.567993 
	C650.481995,580.355103 664.102234,558.403931 665.091125,529.494385 
	C650.019165,553.038330 638.990479,579.753296 618.165222,600.407898 
	C620.873779,599.256653 623.582336,598.105408 626.932861,596.567993 
M378.985962,579.481506 
	C394.333221,594.620911 400.202362,598.942200 408.087677,600.184448 
	C386.206604,581.000732 375.984100,554.837891 360.523926,532.254761 
	C362.783691,549.358337 365.866882,566.033386 378.985962,579.481506 
M501.573334,605.032593 
	C496.496155,608.131897 491.418945,611.231201 486.341766,614.330505 
	C486.577087,614.845032 486.812378,615.359558 487.047699,615.874084 
	C494.147186,613.313293 501.413269,611.125305 508.284790,608.054382 
	C512.527893,606.158020 515.725159,606.353882 519.553711,608.857605 
	C524.838196,612.313293 530.690674,614.505859 537.700806,613.817810 
	C529.067322,607.641296 520.883179,601.786194 512.901733,596.076111 
	C509.103058,599.236633 505.698517,602.069275 501.573334,605.032593 
M489.495544,440.117371 
	C486.850922,439.063446 484.206299,438.009552 480.678619,436.603729 
	C492.305084,452.688232 530.700500,453.324402 543.916382,437.346313 
	C537.631592,439.467896 532.365662,441.854889 526.843567,442.950500 
	C520.398315,444.229218 513.682007,445.171661 507.171448,444.782867 
	C501.428711,444.439941 495.807312,442.064789 489.495544,440.117371 
z"/>
<!-- start -->

<path fill="#e53935" opacity="1.000000" stroke="none" 
	d="
M669.146973,619.078125 
	C675.000549,598.470581 681.069641,578.012146 687.364502,556.792725 
	C694.820923,557.492432 702.969788,558.589417 711.150330,558.934387 
	C719.928711,559.304688 728.805542,559.652954 737.515991,558.779907 
	C750.726562,557.455872 763.622681,554.280396 775.883423,548.930603 
	C778.277893,547.885742 780.724304,546.959717 783.525024,545.956543 
	C779.763245,548.187683 775.819458,550.969604 771.445923,552.595337 
	C758.496460,557.409119 745.228882,561.430725 731.235291,560.923096 
	C718.242249,560.451782 705.269714,559.282837 692.306824,558.198364 
	C689.090454,557.929260 687.578430,558.521179 686.737732,561.984131 
	C683.138977,576.808167 679.381897,591.601013 675.256226,606.285522 
	C673.989136,610.795410 671.365112,614.924011 669.146973,619.078125 
z"/>
<path fill="#e53935" opacity="1.000000" stroke="none" 
	d="
M382.048035,653.286499 
	C383.003052,654.166626 384.527527,655.293884 384.894440,656.719238 
	C390.254883,677.542969 395.762970,698.337097 400.568848,719.291321 
	C402.787537,728.964966 403.862640,738.937744 404.915680,748.832458 
	C406.237732,761.255676 406.972992,773.740723 408.072998,786.189209 
	C408.161743,787.193298 409.112183,788.121277 409.839539,789.410095 
	C405.747528,790.860901 406.504852,787.027100 406.216095,785.253723 
	C405.446869,780.529358 405.261810,775.699280 405.012329,770.902588 
	C403.969543,750.854675 402.006653,730.956665 396.954498,711.432190 
	C392.386719,693.779480 388.232758,676.019958 383.844910,658.320251 
	C383.449005,656.723206 382.676697,655.219421 382.048035,653.286499 
z"/>
<path fill="#e53935" opacity="1.000000" stroke="none" 
	d="
M617.440430,788.005005 
	C617.843567,778.041077 618.107117,768.153259 619.333557,758.386292 
	C621.199524,743.526123 623.431641,728.695129 626.099548,713.958862 
	C627.624390,705.536438 630.445557,697.356262 632.457886,689.012634 
	C635.090820,678.095947 637.496643,667.124573 640.023682,656.182129 
	C640.125916,655.739441 640.468811,655.352295 641.024780,654.795349 
	C640.759827,659.008240 640.547058,663.456909 639.513123,667.705627 
	C635.403198,684.593323 630.322144,701.278503 626.980347,718.309326 
	C624.033264,733.328491 622.825500,748.696655 621.039856,763.932922 
	C620.117126,771.806274 619.615967,779.728760 618.864197,787.623352 
	C618.844727,787.828003 618.125183,787.966064 617.440430,788.005005 
z"/>
<path fill="#e53935" opacity="1.000000" stroke="none" 
	d="
M555.512085,288.275146 
	C546.716370,285.083649 538.291382,280.446167 529.270447,278.143860 
	C503.737457,271.627411 481.277710,277.761841 462.117096,296.942932 
	C461.357635,297.027466 461.173920,297.010132 460.990234,296.992798 
	C465.011780,289.078491 472.631653,285.231537 479.805756,281.282440 
	C489.481079,275.956543 500.114075,272.403625 511.239899,273.166443 
	C526.195251,274.191803 540.875916,277.060577 553.641052,285.825653 
	C554.409180,286.353058 554.959229,287.198059 555.512085,288.275146 
z"/>
<path fill="#e53935" opacity="1.000000" stroke="none" 
	d="
M267.214996,555.225403 
	C272.596527,556.080566 278.140320,557.757935 283.788757,558.261414 
	C291.900085,558.984375 300.097839,559.212097 308.239868,558.982727 
	C316.278839,558.756226 324.296631,557.722595 332.318604,556.987488 
	C334.255096,556.810059 336.171570,556.413513 337.825836,556.159363 
	C343.884552,575.842468 349.929077,595.479553 355.997986,615.479248 
	C355.520752,615.910950 354.616913,616.134766 354.575348,616.026794 
	C352.672119,611.081543 350.518463,606.200134 349.071075,601.118469 
	C345.313812,587.927063 341.772491,574.671265 338.378326,561.381592 
	C337.616425,558.398376 336.370819,557.797241 333.515198,558.269836 
	C313.634460,561.560547 293.735229,562.879089 273.901978,557.929138 
	C271.680817,557.374695 269.580383,556.336853 267.214996,555.225403 
z"/>
<path fill="#e53935" opacity="1.000000" stroke="none" 
	d="
M747.028687,352.346558 
	C753.673767,365.924438 760.336243,379.891693 761.987427,395.566254 
	C763.691162,411.739410 764.921631,427.979279 767.250488,444.060913 
	C768.109497,449.992371 771.510803,455.555725 773.905029,461.605042 
	C771.747925,458.903534 768.137390,456.177185 767.377930,452.808105 
	C765.277893,443.492645 763.741150,433.949982 763.117004,424.422729 
	C761.781128,404.029419 760.508789,383.750916 751.091370,364.989563 
	C749.181152,361.183990 748.348877,356.837372 747.028687,352.346558 
z"/>
<path fill="#e53935" opacity="1.000000" stroke="none" 
	d="
M568.968872,390.564209 
	C569.974792,387.547821 571.316895,384.552948 572.710449,381.582184 
	C576.462036,373.584198 576.096924,365.001068 575.783325,356.564972 
	C575.672424,353.582458 573.130737,351.237274 569.306946,352.334167 
	C568.425354,352.587128 567.507751,352.714722 567.044922,352.809906 
	C567.372314,342.924561 568.394287,333.215485 567.821899,323.601318 
	C567.208862,313.306824 566.865784,302.624634 560.227051,293.441956 
	C560.637451,293.030884 560.819946,293.014832 561.002441,292.998779 
	C563.269409,297.660370 566.825989,302.128601 567.559448,307.020111 
	C569.685608,321.200684 571.903503,335.531738 568.362793,349.887299 
	C575.450623,350.206482 576.504150,351.718292 577.100769,358.858124 
	C577.962646,369.171631 576.938782,378.975586 571.473999,387.985809 
	C570.895752,388.939178 570.050049,389.730286 568.968872,390.564209 
z"/>
<path fill="#e53935" opacity="1.000000" stroke="none" 
	d="
M420.819519,460.707123 
	C411.918549,457.552521 403.136566,453.708923 394.069550,450.734131 
	C390.362244,449.517761 386.026459,450.316254 381.996796,449.965851 
	C365.849396,448.561829 350.825806,452.084412 336.409119,460.071045 
	C337.777100,458.565643 339.283844,456.567444 341.288483,455.575928 
	C359.717316,446.460907 379.298737,445.241028 398.911255,449.514587 
	C406.636902,451.198029 413.543945,456.638306 420.819519,460.707123 
z"/>
<path fill="#e53935" opacity="1.000000" stroke="none" 
	d="
M460.683594,297.165009 
	C461.173920,297.010132 461.357635,297.027466 461.813965,297.088715 
	C454.909088,315.158844 454.807556,333.776886 457.882599,352.731201 
	C448.737000,350.488556 446.893585,355.174622 448.444397,362.185059 
	C449.604431,367.428711 449.510773,372.945801 450.057068,378.332825 
	C450.153015,379.278961 450.652771,380.184113 451.010345,381.501770 
	C449.704620,378.531921 447.900757,375.269073 447.126740,371.777954 
	C446.278625,367.952515 446.442780,363.910248 446.054871,359.973389 
	C445.458221,353.918365 447.902069,351.064209 454.998077,349.536499 
	C454.998077,338.862396 454.672974,328.215424 455.113007,317.600220 
	C455.403839,310.584625 455.820282,303.356171 460.683594,297.165009 
z"/>
<path fill="#e53935" opacity="1.000000" stroke="none" 
	d="
M689.122925,460.555908 
	C680.043945,456.841522 671.575928,451.822266 661.390869,450.827545 
	C645.547913,449.280182 629.932251,448.809265 614.458130,455.030579 
	C614.204224,454.467926 614.193420,453.422974 614.480591,453.333374 
	C620.337524,451.505737 626.134277,448.821625 632.131165,448.236267 
	C647.364868,446.749207 662.611877,447.069946 677.146057,452.940399 
	C680.841736,454.433167 684.416687,456.242981 687.962891,458.070557 
	C688.599854,458.398804 688.824585,459.527008 689.122925,460.555908 
z"/>
<path fill="#e53935" opacity="1.000000" stroke="none" 
	d="
M762.123108,309.575684 
	C750.504272,304.906616 739.055725,299.832672 727.473816,295.084167 
	C721.608337,292.679382 715.569275,290.624084 709.470459,288.899567 
	C707.106262,288.231110 704.360535,288.912018 701.435791,289.016174 
	C700.895508,288.464020 700.708069,287.873962 700.520630,287.283936 
	C703.406982,286.929871 706.677368,285.512390 709.117676,286.393677 
	C725.416504,292.279541 741.567566,298.582031 757.676758,304.975616 
	C759.485168,305.693390 760.731384,307.827911 762.123108,309.575684 
z"/>
<path fill="#e53935" opacity="1.000000" stroke="none" 
	d="
M756.033203,453.786621 
	C740.701904,444.746185 725.229797,444.909332 709.564209,452.832367 
	C704.327576,455.480835 699.128601,458.203644 693.583313,460.932678 
	C693.905273,459.940491 694.308960,458.462860 695.244690,457.943176 
	C707.445801,451.166931 719.693176,443.784912 734.310608,445.219360 
	C741.236267,445.899017 747.949951,448.863708 754.704346,450.970612 
	C755.384277,451.182709 755.680115,452.626495 756.033203,453.786621 
z"/>
<path fill="#e53935" opacity="1.000000" stroke="none" 
	d="
M326.043976,290.778900 
	C322.164734,287.888214 318.292267,286.949860 313.382568,288.924011 
	C297.931488,295.136719 282.332245,300.980927 266.426025,307.011353 
	C266.017700,306.383820 265.748871,305.211975 265.962921,305.115906 
	C269.879883,303.357880 273.813507,301.620667 277.825073,300.092926 
	C289.701935,295.569885 301.575073,291.030029 313.546051,286.767487 
	C315.933594,285.917358 318.905457,285.648499 321.314850,286.262177 
	C323.170380,286.734772 324.566437,289.011566 326.043976,290.778900 
z"/>
<path fill="#e53935" opacity="1.000000" stroke="none" 
	d="
M313.156799,450.559753 
	C294.854065,443.848694 277.986389,445.684265 262.489990,458.528900 
	C262.621918,457.421387 262.687531,455.755127 263.520569,455.155884 
	C278.484680,444.392548 294.548798,441.196899 311.987640,448.588379 
	C312.548553,448.826141 312.837189,449.706299 313.156799,450.559753 
z"/>
<path fill="#e53935" opacity="1.000000" stroke="none" 
	d="
M251.264252,461.851074 
	C253.466187,454.666626 256.271271,447.423859 258.384003,439.984497 
	C259.533508,435.936859 259.650238,431.566437 259.982147,427.321991 
	C260.749878,417.504059 261.364899,407.674194 262.316162,397.423767 
	C262.590515,396.998383 263.014008,397.001251 263.014008,397.001251 
	C261.666718,414.757446 262.655762,432.771179 257.840790,450.136017 
	C256.698303,454.256287 253.715256,457.866180 251.264252,461.851074 
z"/>
<path fill="#e53935" opacity="1.000000" stroke="none" 
	d="
M565.017456,446.848938 
	C557.069092,438.595367 557.172485,428.736023 559.202698,418.402496 
	C560.084961,413.911987 560.409912,409.312134 560.992310,404.762451 
	C561.426941,401.366760 561.868286,397.971985 562.656982,394.613647 
	C563.007263,394.650513 563.034241,395.071625 563.034302,395.071625 
	C562.042664,404.697388 560.916321,414.311829 560.104553,423.952759 
	C559.518494,430.912598 559.520142,437.850037 564.361389,443.732544 
	C564.971375,444.473694 565.000610,445.692719 565.017456,446.848938 
z"/>
<path fill="#e53935" opacity="1.000000" stroke="none" 
	d="
M759.291504,132.386185 
	C765.323486,133.280945 771.760498,133.926941 777.883240,135.674393 
	C787.877625,138.526840 797.667114,142.097504 807.802917,145.607208 
	C804.386353,145.058731 800.661560,144.443604 797.042419,143.445282 
	C785.459045,140.250092 773.913635,136.917328 762.357910,133.622406 
	C761.406921,133.351242 760.488831,132.964905 759.291504,132.386185 
z"/>
<path fill="#e53935" opacity="1.000000" stroke="none" 
	d="
M931.959473,270.093414 
	C936.576477,282.332947 940.924255,294.769958 945.124084,307.601227 
	C942.709839,302.272308 940.342957,296.586365 938.205383,290.815491 
	C936.029175,284.940216 934.056396,278.988831 932.054016,273.050720 
	C931.763000,272.188019 931.803284,271.213623 931.959473,270.093414 
z"/>
<path fill="#e53935" opacity="1.000000" stroke="none" 
	d="
M266.213623,380.791199 
	C268.604340,372.982635 271.106567,364.908356 274.057281,357.001526 
	C275.339020,353.566956 277.543274,350.476685 279.649048,347.092712 
	C276.571991,355.788116 273.206543,364.633453 269.756073,373.445435 
	C268.803162,375.879059 267.597046,378.213531 266.213623,380.791199 
z"/>
<path fill="#e53935" opacity="1.000000" stroke="none" 
	d="
M690.253174,353.230042 
	C696.922241,353.278931 703.850220,354.053558 710.739563,353.795776 
	C714.832520,353.642639 718.864746,351.863647 723.276367,350.741699 
	C722.231506,355.865631 717.261047,355.581573 713.897888,355.588379 
	C706.098633,355.604156 698.296692,354.294098 690.253174,353.230042 
z"/>
<path fill="#e53935" opacity="1.000000" stroke="none" 
	d="
M304.185486,353.279236 
	C314.804077,355.534485 325.444946,353.169556 336.553375,351.959106 
	C336.432404,352.520264 335.946716,353.526794 335.315735,353.628052 
	C325.896637,355.139679 316.495636,357.463989 306.896606,354.970642 
	C305.993286,354.735992 305.200226,354.076843 304.185486,353.279236 
z"/>
<path fill="#e53935" opacity="1.000000" stroke="none" 
	d="
M268.997528,129.155365 
	C279.024506,128.104706 289.051453,127.054039 299.535461,126.059784 
	C299.158722,126.736549 298.365845,127.828247 297.484894,127.904655 
	C288.301636,128.701111 279.104218,129.334503 269.455780,129.796005 
	C269.000824,129.578888 268.997528,129.155365 268.997528,129.155365 
z"/>
<path fill="#e53935" opacity="1.000000" stroke="none" 
	d="
M732.370483,127.878593 
	C735.987610,128.170197 739.604797,128.461792 743.609863,128.881836 
	C743.879517,129.123428 743.755615,129.340866 743.643677,129.334839 
	C735.162231,128.877747 726.681763,128.403030 718.005127,127.505096 
	C720.936890,127.106667 724.064819,127.132828 727.709900,127.377029 
	C728.227112,127.595055 728.593201,127.675552 728.593201,127.675552 
	C728.593201,127.675552 728.924561,127.479164 728.924561,127.479156 
	C729.443298,127.462929 729.962036,127.446701 731.029663,127.645546 
	C731.578613,127.860619 731.973694,127.907471 731.973694,127.907471 
	C731.973694,127.907471 732.370483,127.878593 732.370483,127.878593 
z"/>
<path fill="#e53935" opacity="1.000000" stroke="none" 
	d="
M724.005554,350.631561 
	C725.822937,343.840118 727.086304,343.006226 733.838318,344.014893 
	C736.790955,344.455963 739.741394,344.911652 742.874084,345.662720 
	C739.607727,345.691803 736.064575,345.828308 732.734985,345.050354 
	C727.697083,343.873322 726.741089,348.142578 724.005554,350.631561 
z"/>
<path fill="#e53935" opacity="1.000000" stroke="none" 
	d="
M281.353210,345.905396 
	C286.126984,345.004669 291.361267,344.152008 296.821472,343.631470 
	C291.969482,344.626862 286.891602,345.290161 281.353210,345.905396 
z"/>
<path fill="#e53935" opacity="1.000000" stroke="none" 
	d="
M263.278198,396.716125 
	C263.014008,397.001251 262.590515,396.998383 262.378815,396.996887 
	C263.216217,391.777832 264.265320,386.560272 265.639282,381.140015 
	C265.156952,386.101868 264.349670,391.266418 263.278198,396.716125 
z"/>
<path fill="#e53935" opacity="1.000000" stroke="none" 
	d="
M683.547974,345.208557 
	C685.920959,347.523743 687.965454,349.869629 690.032227,352.590240 
	C684.025879,351.813049 681.816650,349.315979 683.547974,345.208557 
z"/>
<path fill="#e53935" opacity="1.000000" stroke="none" 
	d="
M87.297882,283.945831 
	C88.414902,280.017090 89.885857,276.026917 91.626373,271.771881 
	C90.481216,275.632812 89.066513,279.758606 87.297882,283.945831 
z"/>
<path fill="#e53935" opacity="1.000000" stroke="none" 
	d="
M248.205276,548.224121 
	C252.237228,549.403259 256.468048,550.870972 260.878418,552.654297 
	C256.839996,551.484131 252.622086,549.998352 248.205276,548.224121 
z"/>
<path fill="#e53935" opacity="1.000000" stroke="none" 
	d="
M254.026306,132.914490 
	C257.277618,131.767654 260.743042,130.918671 264.600403,130.077881 
	C261.408386,131.128174 257.824402,132.170258 254.026306,132.914490 
z"/>
<path fill="#e53935" opacity="1.000000" stroke="none" 
	d="
M919.096008,244.841553 
	C920.790344,247.305298 922.461548,250.189835 924.221741,253.414642 
	C919.443115,252.849411 920.132629,248.516403 919.096008,244.841553 
z"/>
<path fill="#e53935" opacity="1.000000" stroke="none" 
	d="
M951.606445,362.354645 
	C951.987915,367.386536 952.112732,372.738953 952.135376,378.551636 
	C951.805359,373.566284 951.577637,368.120758 951.606445,362.354645 
z"/>
<path fill="#e53935" opacity="1.000000" stroke="none" 
	d="
M396.267151,145.985535 
	C399.020386,146.826340 401.841522,148.025101 404.892212,149.478271 
	C402.192902,148.602951 399.263947,147.473221 396.267151,145.985535 
z"/>
<path fill="#e53935" opacity="1.000000" stroke="none" 
	d="
M949.022156,328.320740 
	C949.751770,331.628632 950.462341,335.394958 951.119873,339.592468 
	C950.378967,336.275513 949.691040,332.527344 949.022156,328.320740 
z"/>
<path fill="#e53935" opacity="1.000000" stroke="none" 
	d="
M950.821777,346.202759 
	C951.494568,348.695160 951.889526,351.438751 952.217468,354.621704 
	C951.614929,352.192047 951.079529,349.322968 950.821777,346.202759 
z"/>
<path fill="#e53935" opacity="1.000000" stroke="none" 
	d="
M560.960754,292.651855 
	C560.819946,293.014832 560.637451,293.030884 560.183838,293.087402 
	C558.243042,291.758453 556.573364,290.389069 554.992554,288.800354 
	C557.027283,289.822296 558.973145,291.063599 560.960754,292.651855 
z"/>
<path fill="#e53935" opacity="1.000000" stroke="none" 
	d="
M648.277222,647.946411 
	C649.023865,646.402222 650.109314,644.832703 651.481689,643.128418 
	C650.717896,644.636108 649.666992,646.278625 648.277222,647.946411 
z"/>
<path fill="#e53935" opacity="1.000000" stroke="none" 
	d="
M374.949158,645.152649 
	C376.448029,646.406128 377.728607,647.846924 379.025604,649.628174 
	C377.604980,648.425720 376.167908,646.882812 374.949158,645.152649 
z"/>
<path fill="#e53935" opacity="1.000000" stroke="none" 
	d="
M683.526306,338.168091 
	C683.891663,339.161804 683.926147,340.193115 683.900024,341.610687 
	C682.992310,342.341034 682.145264,342.685089 679.893005,343.599945 
	C681.417053,341.110565 682.306274,339.658112 683.526306,338.168091 
z"/>
<path fill="#e53935" opacity="1.000000" stroke="none" 
	d="
M337.300751,351.976196 
	C338.036530,350.725464 339.127167,349.483307 340.495483,348.119568 
	C339.733948,349.326874 338.694763,350.655823 337.300751,351.976196 
z"/>
<path fill="#e53935" opacity="1.000000" stroke="none" 
	d="
M811.076233,147.392365 
	C813.001831,147.799408 815.001526,148.572540 817.249512,149.615051 
	C815.382019,149.175751 813.266174,148.467102 811.076233,147.392365 
z"/>
<path fill="#e53935" opacity="1.000000" stroke="none" 
	d="
M563.391846,395.042908 
	C563.034241,395.071625 563.007263,394.650513 562.999390,394.439697 
	C564.624512,393.077454 566.257568,391.925995 568.189758,390.690735 
	C566.909058,392.076050 565.329285,393.545105 563.391846,395.042908 
z"/>
<path fill="#e53935" opacity="1.000000" stroke="none" 
	d="
M417.092041,156.200806 
	C418.661072,156.626770 420.265991,157.420700 422.071991,158.483246 
	C420.558014,158.024170 418.842987,157.296463 417.092041,156.200806 
z"/>
<path fill="#e53935" opacity="1.000000" stroke="none" 
	d="
M683.009460,332.523529 
	C683.598877,333.355865 684.178467,334.552826 684.433716,335.941284 
	C683.739441,335.051208 683.369507,333.969696 683.009460,332.523529 
z"/>
<path fill="#e53935" opacity="1.000000" stroke="none" 
	d="
M244.160446,546.249023 
	C245.340942,546.350464 246.670349,546.769836 248.029541,547.579773 
	C246.809326,547.502563 245.559357,547.034729 244.160446,546.249023 
z"/>
<path fill="#e53935" opacity="1.000000" stroke="none" 
	d="
M916.191284,240.081818 
	C916.598511,239.804199 916.837280,240.019745 917.132324,240.538925 
	C917.542297,241.271027 917.794617,241.811798 918.116882,242.643509 
	C917.499268,242.110519 916.811768,241.286606 916.191284,240.081818 
z"/>
<path fill="#e53935" opacity="1.000000" stroke="none" 
	d="
M92.915741,467.188660 
	C92.266663,466.313873 91.641571,465.016876 90.992165,463.357849 
	C91.625145,464.252686 92.282433,465.509583 92.915741,467.188660 
z"/>
<path fill="#e53935" opacity="1.000000" stroke="none" 
	d="
M948.022949,322.243958 
	C948.374512,323.298615 948.705383,324.741455 948.947815,326.574707 
	C948.573669,325.520782 948.287964,324.076447 948.022949,322.243958 
z"/>
<path fill="#e53935" opacity="1.000000" stroke="none" 
	d="
M186.896652,159.908508 
	C187.416519,159.242233 188.341537,158.596252 189.594391,157.855713 
	C189.048737,158.483673 188.175262,159.206238 186.896652,159.908508 
z"/>
<path fill="#e53935" opacity="1.000000" stroke="none" 
	d="
M915.566711,237.991989 
	C915.941528,238.509186 916.052734,238.864655 916.240906,239.489822 
	C915.571655,238.924088 914.825500,238.088623 914.104919,236.839996 
	C914.521423,236.894653 914.912231,237.362457 915.566711,237.991989 
z"/>
<path fill="#e53935" opacity="1.000000" stroke="none" 
	d="
M824.005005,153.428574 
	C824.959961,153.534744 825.911926,153.950714 827.014099,154.654572 
	C826.110168,154.541107 825.056091,154.139740 824.005005,153.428574 
z"/>
<path fill="#e53935" opacity="1.000000" stroke="none" 
	d="
M947.024231,317.243988 
	C947.436157,318.004395 947.834167,319.136505 948.093262,320.628143 
	C947.639587,319.863678 947.324951,318.739685 947.024231,317.243988 
z"/>
<path fill="#e53935" opacity="1.000000" stroke="none" 
	d="
M951.589355,383.055054 
	C951.798706,383.605286 951.727783,384.193695 951.382446,384.916138 
	C951.175049,384.397888 951.242065,383.745575 951.589355,383.055054 
z"/>
<path fill="#e53935" opacity="1.000000" stroke="none" 
	d="
M743.071838,346.263763 
	C743.662415,346.407776 744.292847,346.876617 744.988770,347.656647 
	C744.406738,347.508087 743.759216,347.048340 743.071838,346.263763 
z"/>
<path fill="#e53935" opacity="1.000000" stroke="none" 
	d="
M298.053223,346.265198 
	C298.687347,346.734314 299.339172,347.532043 300.024323,348.656677 
	C299.395416,348.186951 298.733154,347.390411 298.053223,346.265198 
z"/>
<path fill="#e53935" opacity="1.000000" stroke="none" 
	d="
M409.121826,151.940582 
	C409.672119,151.818115 410.221405,152.023529 410.962219,152.451569 
	C410.476135,152.538956 409.798462,152.403717 409.121826,151.940582 
z"/>
<path fill="#e53935" opacity="1.000000" stroke="none" 
	d="
M301.393250,350.961304 
	C302.219971,351.205200 303.019714,351.794067 303.933105,352.676758 
	C303.153229,352.415833 302.259735,351.861084 301.393250,350.961304 
z"/>
<path fill="#e53935" opacity="1.000000" stroke="none" 
	d="
M945.028259,309.212708 
	C945.428650,309.678009 945.817688,310.487518 946.075317,311.641022 
	C945.634888,311.175690 945.325928,310.366302 945.028259,309.212708 
z"/>
<path fill="#e53935" opacity="1.000000" stroke="none" 
	d="
M646.278198,649.941162 
	C646.439148,649.367432 646.927490,648.760803 647.693848,648.048096 
	C647.516418,648.597473 647.060974,649.252869 646.278198,649.941162 
z"/>
<path fill="#e53935" opacity="1.000000" stroke="none" 
	d="
M264.209595,554.208618 
	C264.906616,554.080200 265.810272,554.224304 266.886841,554.668457 
	C266.178558,554.806030 265.297424,554.643555 264.209595,554.208618 
z"/>
<path fill="#e53935" opacity="1.000000" stroke="none" 
	d="
M946.025879,313.206604 
	C946.414124,313.671295 946.787048,314.479828 947.046631,315.635345 
	C946.625732,315.171692 946.318115,314.361084 946.025879,313.206604 
z"/>
<path fill="#e53935" opacity="1.000000" stroke="none" 
	d="
M261.208923,553.202759 
	C261.907593,553.075989 262.810516,553.223267 263.883118,553.671936 
	C263.172943,553.807739 262.293091,553.642212 261.208923,553.202759 
z"/>
<path fill="#e53935" opacity="1.000000" stroke="none" 
	d="
M241.930267,545.130005 
	C242.644119,545.093018 243.218231,545.258545 243.924927,545.697632 
	C243.301849,545.758301 242.546188,545.545471 241.930267,545.130005 
z"/>
<path fill="#e53935" opacity="1.000000" stroke="none" 
	d="
M746.046509,350.264709 
	C746.353699,350.430054 746.670288,350.899506 747.023193,351.675720 
	C746.724976,351.511230 746.390442,351.039978 746.046509,350.264709 
z"/>
<path fill="#e53935" opacity="1.000000" stroke="none" 
	d="
M644.924194,651.603333 
	C644.880188,651.133667 645.152466,650.648682 645.698730,650.057739 
	C645.728699,650.497253 645.484619,651.042603 644.924194,651.603333 
z"/>
<path fill="#e53935" opacity="1.000000" stroke="none" 
	d="
M297.044861,344.256104 
	C297.353027,344.422455 297.674133,344.895294 298.034241,345.677673 
	C297.734772,345.512329 297.396301,345.037445 297.044861,344.256104 
z"/>
<path fill="#e53935" opacity="1.000000" stroke="none" 
	d="
M300.052612,349.267548 
	C300.459442,349.318848 300.888702,349.686768 301.357239,350.334747 
	C300.956055,350.271240 300.515533,349.927704 300.052612,349.267548 
z"/>
<path fill="#e53935" opacity="1.000000" stroke="none" 
	d="
M745.046631,348.255188 
	C745.351746,348.421936 745.669556,348.892639 746.018433,349.671783 
	C745.719421,349.506500 745.389404,349.032806 745.046631,348.255188 
z"/>
<path fill="#e53935" opacity="1.000000" stroke="none" 
	d="
M413.252686,153.962585 
	C413.696869,153.901291 414.296204,154.147736 415.099304,154.647995 
	C414.671356,154.691299 414.039612,154.480820 413.252686,153.962585 
z"/>
<path fill="#e53935" opacity="1.000000" stroke="none" 
	d="
M924.215820,254.065186 
	C924.580872,254.220062 924.906250,254.715179 925.315063,255.505951 
	C924.991028,255.336197 924.583618,254.870819 924.215820,254.065186 
z"/>
<path fill="#e53935" opacity="1.000000" stroke="none" 
	d="
M394.249390,144.944061 
	C394.698029,144.839371 395.292236,145.043900 396.086792,145.492950 
	C395.656403,145.576096 395.025665,145.414703 394.249390,144.944061 
z"/>
<path fill="#e53935" opacity="1.000000" stroke="none" 
	d="
M250.106094,463.075958 
	C250.136429,462.651672 250.319717,462.381897 250.740845,462.034119 
	C250.738815,462.380890 250.498932,462.805695 250.106094,463.075958 
z"/>
<path fill="#e53935" opacity="1.000000" stroke="none" 
	d="
M380.134766,651.189941 
	C380.312744,651.136230 380.604065,651.314758 380.997009,651.735840 
	C380.815094,651.793091 380.531616,651.607666 380.134766,651.189941 
z"/>
<path fill="#e53935" opacity="1.000000" stroke="none" 
	d="
M643.927612,652.578125 
	C643.628113,652.182007 643.780762,651.905579 644.345825,651.683533 
	C644.461487,651.963562 644.335388,652.283508 643.927612,652.578125 
z"/>
<path fill="#e53935" opacity="1.000000" stroke="none" 
	d="
M642.923706,653.591553 
	C642.609680,653.207886 642.752075,652.931213 643.302063,652.691650 
	C643.426392,652.962585 643.316528,653.285828 642.923706,653.591553 
z"/>
<path fill="#e53935" opacity="1.000000" stroke="none" 
	d="
M641.924316,654.571533 
	C641.629333,654.180420 641.778015,653.910217 642.320984,653.682678 
	C642.438354,653.958923 642.322632,654.281250 641.924316,654.571533 
z"/>
<path fill="#e53935" opacity="1.000000" stroke="none" 
	d="
M379.127350,650.186768 
	C379.307343,650.135498 379.592896,650.311401 379.960327,650.732666 
	C379.772430,650.789978 379.502686,650.602051 379.127350,650.186768 
z"/>
<path fill="#e53935" opacity="1.000000" stroke="none" 
	d="
M822.158386,152.313263 
	C822.324646,152.228928 822.630554,152.343811 823.047729,152.704071 
	C822.834473,152.877762 822.547546,152.732101 822.158386,152.313263 
z"/>
<path fill="#e53935" opacity="1.000000" stroke="none" 
	d="
M268.728638,129.117645 
	C268.997528,129.155365 269.000824,129.578888 269.002625,129.790802 
	C268.809021,130.000595 268.613647,129.998489 268.125488,129.969467 
	C268.041718,129.655029 268.250763,129.367493 268.728638,129.117645 
z"/>
<path fill="#e53935" opacity="1.000000" stroke="none" 
	d="
M828.210205,155.341492 
	C828.379272,155.232803 828.733765,155.321838 829.252930,155.645065 
	C829.076904,155.765900 828.736328,155.652542 828.210205,155.341492 
z"/>
<path fill="#e53935" opacity="1.000000" stroke="none" 
	d="
M280.180939,346.862793 
	C280.084503,346.648956 280.219299,346.313843 280.617737,345.905151 
	C280.724945,346.134918 280.568573,346.438202 280.180939,346.862793 
z"/>
<path fill="#e53935" opacity="1.000000" stroke="none" 
	d="
M808.116211,641.195862 
	C808.129639,641.375977 807.860046,641.653381 807.316589,642.044189 
	C807.306213,641.869507 807.569763,641.581299 808.116211,641.195862 
z"/>
<path fill="#e53935" opacity="1.000000" stroke="none" 
	d="
M101.425217,484.931091 
	C101.153076,484.918976 101.169022,484.847717 101.147156,484.820679 
	C101.402557,484.741974 101.679817,484.690338 101.957077,484.638702 
	C101.870506,484.740204 101.783936,484.841736 101.425217,484.931091 
z"/>
<path fill="#e53935" opacity="1.000000" stroke="none" 
	d="
M820.134644,151.213531 
	C820.308838,151.145599 820.619568,151.297836 821.043457,151.700684 
	C820.861511,151.778763 820.566284,151.606216 820.134644,151.213531 
z"/>
<path fill="#e53935" opacity="1.000000" stroke="none" 
	d="
M728.714966,127.384262 
	C728.924561,127.479164 728.593201,127.675552 728.593201,127.675552 
	C728.593201,127.675552 728.227112,127.595055 728.142090,127.494286 
	C728.057068,127.393517 728.505371,127.289360 728.714966,127.384262 
z"/>
<path fill="#e53935" opacity="1.000000" stroke="none" 
	d="
M732.195923,127.751801 
	C732.370483,127.878593 731.973694,127.907471 731.973694,127.907471 
	C731.973694,127.907471 731.578613,127.860619 731.391602,127.795578 
	C731.455566,127.531502 731.727783,127.496323 732.195923,127.751801 
z"/>
<path fill="#e53935" opacity="1.000000" stroke="none" 
	d="
M626.611877,596.761108 
	C623.582336,598.105408 620.873779,599.256653 618.165222,600.407898 
	C638.990479,579.753296 650.019165,553.038330 665.091125,529.494385 
	C664.102234,558.403931 650.481995,580.355103 626.611877,596.761108 
z"/>
<path fill="#e53935" opacity="1.000000" stroke="none" 
	d="
M378.731018,579.231445 
	C365.866882,566.033386 362.783691,549.358337 360.523926,532.254761 
	C375.984100,554.837891 386.206604,581.000732 408.087677,600.184448 
	C400.202362,598.942200 394.333221,594.620911 378.731018,579.231445 
z"/>
<path fill="#e53935" opacity="1.000000" stroke="none" 
	d="
M501.933655,604.967285 
	C505.698517,602.069275 509.103058,599.236633 512.901733,596.076111 
	C520.883179,601.786194 529.067322,607.641296 537.700806,613.817810 
	C530.690674,614.505859 524.838196,612.313293 519.553711,608.857605 
	C515.725159,606.353882 512.527893,606.158020 508.284790,608.054382 
	C501.413269,611.125305 494.147186,613.313293 487.047699,615.874084 
	C486.812378,615.359558 486.577087,614.845032 486.341766,614.330505 
	C491.418945,611.231201 496.496155,608.131897 501.933655,604.967285 
z"/>
<path fill="#e53935" opacity="1.000000" stroke="none" 
	d="
M489.813965,440.352173 
	C495.807312,442.064789 501.428711,444.439941 507.171448,444.782867 
	C513.682007,445.171661 520.398315,444.229218 526.843567,442.950500 
	C532.365662,441.854889 537.631592,439.467896 543.916382,437.346313 
	C530.700500,453.324402 492.305084,452.688232 480.678619,436.603729 
	C484.206299,438.009552 486.850922,439.063446 489.813965,440.352173 
z"/>
</g>
</svg>