<?xml version="1.0" standalone="no"?>
<!DOCTYPE svg PUBLIC "-//W3C//DTD SVG 20010904//EN"
 "http://www.w3.org/TR/2001/REC-SVG-20010904/DTD/svg10.dtd">
<svg version="1.0" xmlns="http://www.w3.org/2000/svg"
 width="265" height="295" viewBox="53 360 265 295"
 preserveAspectRatio="xMidYMid meet">

<g transform="translate(0.000000,1024.000000) scale(0.100000,-0.100000)"
fill="#e53935" stroke="none">
<path d="M1715 6609 c-99 -23 -156 -57 -430 -264 -515 -388 -570 -432 -612
-487 -101 -132 -103 -148 -102 -683 1 -393 3 -448 20 -513 21 -81 51 -139 109
-205 41 -46 844 -638 916 -675 77 -39 161 -55 269 -49 122 5 189 29 295 101
233 161 791 571 827 608 61 63 110 150 127 228 22 96 23 900 2 1001 -32 149
-85 213 -318 381 -95 68 -288 209 -428 312 -276 203 -300 219 -387 241 -63 16
-223 19 -288 4z m204 -566 c39 -29 55 -68 125 -309 102 -350 258 -868 267
-884 8 -15 24 18 191 375 39 83 79 163 91 179 31 43 99 70 184 70 66 1 74 -1
103 -29 85 -82 40 -215 -78 -231 -43 -5 -50 -10 -64 -43 -55 -123 -321 -686
-334 -707 -48 -72 -170 -70 -222 3 -11 16 -51 130 -87 254 -37 123 -96 321
-132 439 -36 118 -85 280 -108 358 -24 79 -45 145 -47 147 -2 2 -78 -130 -168
-293 -91 -163 -179 -311 -195 -329 -52 -52 -109 -63 -340 -63 -193 0 -204 1
-236 23 -74 49 -88 155 -26 201 32 23 108 35 154 24 17 -5 89 -7 160 -6 l128
3 99 175 c54 96 147 265 206 375 139 257 139 257 180 278 43 22 111 18 149
-10z"/>
</g>
</svg>
