<?xml version="1.0" standalone="no"?>
<!DOCTYPE svg PUBLIC "-//W3C//DTD SVG 20010904//EN"
 "http://www.w3.org/TR/2001/REC-SVG-20010904/DTD/svg10.dtd">
<svg version="1.0" xmlns="http://www.w3.org/2000/svg"
 width="924" height="295" viewBox="45 360 924 295"
 preserveAspectRatio="xMidYMid meet">

<g transform="translate(0.000000,1024.000000) scale(0.100000,-0.100000)"
fill="#e53935" stroke="none">
<path d="M1715 6609 c-99 -23 -156 -57 -430 -264 -515 -388 -570 -432 -612
-487 -101 -132 -103 -148 -102 -683 1 -393 3 -448 20 -513 21 -81 51 -139 109
-205 41 -46 844 -638 916 -675 77 -39 161 -55 269 -49 122 5 189 29 295 101
233 161 791 571 827 608 61 63 110 150 127 228 22 96 23 900 2 1001 -32 149
-85 213 -318 381 -95 68 -288 209 -428 312 -276 203 -300 219 -387 241 -63 16
-223 19 -288 4z m204 -566 c39 -29 55 -68 125 -309 102 -350 258 -868 267
-884 8 -15 24 18 191 375 39 83 79 163 91 179 31 43 99 70 184 70 66 1 74 -1
103 -29 85 -82 40 -215 -78 -231 -43 -5 -50 -10 -64 -43 -55 -123 -321 -686
-334 -707 -48 -72 -170 -70 -222 3 -11 16 -51 130 -87 254 -37 123 -96 321
-132 439 -36 118 -85 280 -108 358 -24 79 -45 145 -47 147 -2 2 -78 -130 -168
-293 -91 -163 -179 -311 -195 -329 -52 -52 -109 -63 -340 -63 -193 0 -204 1
-236 23 -74 49 -88 155 -26 201 32 23 108 35 154 24 17 -5 89 -7 160 -6 l128
3 99 175 c54 96 147 265 206 375 139 257 139 257 180 278 43 22 111 18 149
-10z"/>
<path d="M3630 5193 l0 -713 115 0 115 0 0 265 0 265 113 0 112 0 154 -265
153 -265 143 0 142 0 -169 282 c-92 156 -168 285 -168 288 0 3 23 19 51 35
141 83 229 256 213 414 -21 203 -135 336 -333 387 -44 11 -131 15 -350 17
l-291 2 0 -712z m532 496 c105 -22 165 -70 192 -152 23 -69 20 -116 -11 -178
-53 -104 -166 -149 -372 -149 l-111 0 0 245 0 245 125 0 c68 0 148 -5 177 -11z"/>
<path d="M5065 5509 c-250 -65 -410 -292 -391 -554 7 -98 12 -123 37 -194 45
-129 159 -239 294 -283 130 -43 340 -28 485 34 77 33 77 33 67 155 -5 59 -10
109 -12 111 -1 2 -29 -15 -61 -38 -105 -73 -249 -102 -366 -72 -103 26 -170
104 -202 235 l-6 27 365 0 365 0 0 73 c0 146 -61 306 -149 394 -48 47 -161
107 -221 118 -67 12 -145 10 -205 -6z m218 -203 c42 -21 87 -73 111 -130 29
-70 42 -66 -234 -66 -193 0 -250 3 -250 13 1 22 36 91 65 125 70 83 203 108
308 58z"/>
<path d="M8985 5514 c-38 -7 -98 -25 -132 -40 l-63 -26 0 -118 0 -119 56 34
c98 59 172 78 283 73 141 -7 199 -45 211 -138 4 -28 4 -52 2 -55 -3 -3 -72 -5
-153 -5 -220 0 -317 -27 -404 -114 -56 -56 -85 -134 -85 -226 0 -132 64 -238
176 -295 50 -25 72 -30 155 -33 112 -5 197 17 268 69 23 16 44 29 47 29 3 0 4
-16 2 -35 l-4 -35 111 0 110 0 -3 392 c-2 386 -2 392 -25 442 -83 179 -286
253 -552 200z m359 -646 c0 -70 -3 -82 -30 -119 -60 -85 -209 -124 -306 -81
-77 34 -108 121 -72 198 31 65 93 83 283 80 l124 -1 1 -77z"/>
<path d="M7006 5499 c-240 -84 -369 -290 -353 -563 9 -158 53 -262 151 -354
94 -89 198 -128 353 -131 105 -2 236 25 323 67 55 27 55 27 54 72 -1 91 -9
190 -15 190 -3 0 -14 -8 -23 -19 -54 -60 -250 -119 -351 -106 -75 9 -153 51
-192 103 -30 39 -38 61 -59 145 l-6 27 365 0 365 0 5 26 c7 41 -11 180 -34
247 -43 128 -123 219 -244 277 -64 31 -80 34 -175 37 -87 3 -115 0 -164 -18z
m251 -193 c55 -29 132 -135 133 -183 0 -10 -57 -13 -254 -13 l-255 0 15 44
c21 60 78 124 138 153 43 20 62 23 121 20 39 -3 84 -12 102 -21z"/>
<path d="M7676 5498 c49 -81 207 -315 261 -389 38 -52 73 -100 77 -106 4 -8
-21 -51 -65 -110 -40 -54 -108 -150 -150 -213 -42 -63 -91 -134 -109 -157
l-32 -43 125 0 125 0 23 38 c13 20 66 99 118 174 l95 137 116 -174 115 -175
142 0 142 0 -72 98 c-40 53 -125 172 -189 263 l-115 166 30 39 c16 21 76 109
132 194 57 85 121 181 144 213 l42 57 -123 0 -123 0 -114 -176 -114 -176 -63
99 c-35 54 -87 133 -116 175 l-53 77 -128 1 c-100 0 -127 -3 -121 -12z"/>
<path d="M5654 5491 c4 -5 83 -222 176 -483 94 -260 175 -485 181 -500 l11
-28 133 0 133 0 42 123 c23 67 97 284 165 482 67 198 128 373 134 388 l11 28
-112 -3 -111 -3 -130 -387 c-72 -213 -132 -386 -134 -385 -1 2 -62 176 -136
387 l-134 385 -117 3 c-73 2 -115 -1 -112 -7z"/>
</g>
</svg>
